<?xml version="1.0" encoding="UTF-8" standalone="no"?>
<svg
   xmlns:dc="http://purl.org/dc/elements/1.1/"
   xmlns:cc="http://creativecommons.org/ns#"
   xmlns:rdf="http://www.w3.org/1999/02/22-rdf-syntax-ns#"
   xmlns:svg="http://www.w3.org/2000/svg"
   xmlns="http://www.w3.org/2000/svg"
   id="svg10515"
   version="1.1"
   viewBox="0 0 52.916667 76.729165"
   height="290"
   width="200">
  <defs
     id="defs10509" />
  <metadata
     id="metadata10512">
    <rdf:RDF>
      <cc:Work
         rdf:about="">
        <dc:format>image/svg+xml</dc:format>
        <dc:type
           rdf:resource="http://purl.org/dc/dcmitype/StillImage" />
        <dc:title></dc:title>
      </cc:Work>
    </rdf:RDF>
  </metadata>
  <g
     transform="translate(0,-220.27083)"
     id="layer1">
    <g
       transform="translate(-74.083121,130.92635)"
       id="g15263">
      <path
         id="path1390"
         style="fill:#0d0d0d;fill-opacity:1;fill-rule:nonzero;stroke:none;stroke-width:0.35277775"
         d="m 98.18626,148.33758 v -0.99765 c -0.107597,0.0166 -0.217664,0.0233 -0.330906,0.0233 -1.107722,0 -2.033764,-0.77858 -2.259894,-1.81892 h 1.929342 v -0.99095 H 95.59546 c 0.22613,-1.04034 1.152172,-1.81892 2.259894,-1.81892 0.113242,0 0.223309,0.01 0.330906,0.0233 v -0.99766 c -0.109008,-0.0109 -0.219075,-0.0166 -0.330906,-0.0166 -1.825977,0 -3.30588,1.48026 -3.30588,3.30588 0,1.82456 1.479903,3.30482 3.30588,3.30482 0.111831,0 0.221898,-0.007 0.330906,-0.0166" />
      <path
         id="path1392-4"
         style="fill:#0d0d0d;fill-opacity:1;fill-rule:nonzero;stroke:none;stroke-width:0.35277775"
         d="m 88.931135,145.04934 c 0,1.82598 1.480256,3.30483 3.304822,3.30483 0.119592,0 0.236714,-0.006 0.352778,-0.0194 v -0.99907 c -0.114653,0.018 -0.233186,0.0289 -0.352778,0.0289 -1.277761,0 -2.313869,-1.03611 -2.313869,-2.31387 0,-1.27882 1.036108,-2.31634 2.313869,-2.31634 0.119592,0 0.238125,0.0109 0.352778,0.0289 v -1.00048 c -0.116064,-0.0138 -0.233186,-0.018 -0.352778,-0.018 -1.824566,0 -3.304822,1.48026 -3.304822,3.30588" />
      <path
         id="path1394"
         style="fill:#0d0d0d;fill-opacity:1;fill-rule:nonzero;stroke:none;stroke-width:0.35277775"
         d="m 119.78261,141.16067 h -0.54399 v 0.0854 h 0.54399 z m -1.55575,0.26741 c -0.084,0.0441 -0.14993,0.10195 -0.18591,0.16933 h 0.18591 z m 2.82645,0.81315 -0.20531,0.2092 -0.01,0.10619 h 0.24518 v -0.31539 z m -1.85067,1.67005 -1.05974,-1.11901 0.17356,2.01895 z m 0.20955,0.003 1.01283,1.06504 0.20955,-2.25284 h -0.0208 v -0.0388 z m -1.29011,-1.3589 1.18534,1.24707 0.70132,-0.71084 h -0.98813 v -0.37501 h 1.14265 v 0.21767 l 0.45049,-0.45862 v -0.40108 h 0.0811 l 0.0279,-0.28398 h -2.66664 z m 2.86244,3.23427 c 0.004,0.0289 0.007,0.0593 0.007,0.0896 0,0.29775 -0.24094,0.53869 -0.53728,0.53869 -0.20673,0 -0.38594,-0.11571 -0.47554,-0.28645 h -1.31445 v 0.28116 h -0.34608 v -0.28116 c -0.0399,-0.006 -0.0783,-0.0441 -0.0825,-0.0854 l -0.0744,-0.85866 -1.83162,1.86584 -0.11007,-0.10619 1.92511,-1.95792 -0.20813,-2.41299 -1.82986,-1.93217 v -0.21061 l 1.81045,1.90571 -0.048,-0.55386 h -0.22471 v -0.18768 h 0.1972 c 0.004,-0.0109 0.008,-0.0219 0.0138,-0.0356 0.066,-0.1531 0.2025,-0.26035 0.37183,-0.33761 v -0.12559 h 0.31856 v 0.0208 c 0.16651,-0.0388 0.3429,-0.0593 0.50553,-0.0688 v -0.0744 h 0.91793 v 0.45861 h -0.91793 v -0.19403 c -0.16263,0.0124 -0.34149,0.0342 -0.50553,0.073 v 0.28363 h 2.16888 c -0.0854,-0.19967 -0.41628,-0.29492 -0.74542,-0.33761 v -0.19014 c 0.33055,0.0413 0.67098,0.1337 0.84208,0.33478 0.0452,-0.0579 0.11571,-0.0977 0.19544,-0.0977 0.13793,0 0.24941,0.11289 0.24941,0.24942 0,0.13935 -0.11148,0.24941 -0.24941,0.24941 -0.0342,0 -0.066,-0.005 -0.0963,-0.018 l -0.0261,0.28681 h 0.12382 l 1.63724,-1.66617 v 0.21237 l -1.42769,1.4538 h 0.0303 v 0.65193 h -0.42439 l -0.22754,2.43487 1.67852,1.76813 -0.11148,0.10583 z m -1.06821,0.0896 c 0,-0.27411 0.20673,-0.50306 0.47414,-0.53199 l 0.0152,-0.1651 -1.09961,-1.16064 -0.97296,0.98954 0.0815,0.93451 h 1.50602 c -0.003,-0.0236 -0.004,-0.043 -0.004,-0.0663 m 0.25787,0 c 0,0.15558 0.12524,0.28117 0.27976,0.28117 0.15416,0 0.27975,-0.12559 0.27975,-0.28117 0,-0.1531 -0.12559,-0.27975 -0.27975,-0.27975 -0.15452,0 -0.27976,0.12665 -0.27976,0.27975 m 0.0977,0 c 0,-0.0991 0.0815,-0.18062 0.18204,-0.18062 0.10054,0 0.18168,0.0815 0.18168,0.18062 0,0.10054 -0.0811,0.18345 -0.18168,0.18345 -0.10054,0 -0.18204,-0.0829 -0.18204,-0.18345 m -3.63925,2.49555 h 5.40738 v 1.31905 h -5.40738 z" />
      <path
         id="path1396-0"
         style="fill:#0d0d0d;fill-opacity:1;fill-rule:nonzero;stroke:none;stroke-width:0.35277775"
         d="m 87.621977,157.67103 h 0.43815 v 2.15935 h -0.43815 z" />
      <path
         id="path1398"
         style="fill:#0d0d0d;fill-opacity:1;fill-rule:nonzero;stroke:none;stroke-width:0.35277775"
         d="m 88.53038,159.83038 h 0.43815 v -1.77765 h 0.03175 l 0.540102,1.77765 h 0.720725 v -2.15935 h -0.43815 v 1.77764 h -0.03175 l -0.521052,-1.77764 H 88.53038 Z" />
      <path
         id="path1400-3"
         style="fill:#0d0d0d;fill-opacity:1;fill-rule:nonzero;stroke:none;stroke-width:0.35277775"
         d="m 91.524757,159.20208 c 0.506942,0 0.767645,-0.27975 0.767645,-0.78281 0,-0.50165 -0.260703,-0.74965 -0.767645,-0.74965 h -0.79375 v 2.15935 h 0.43815 v -0.62689 z m -0.3556,-0.375 v -0.7814 h 0.351367 c 0.219075,0 0.328083,0.10477 0.328083,0.37359 0,0.27411 -0.109008,0.40781 -0.328083,0.40781 z" />
      <path
         id="path1402"
         style="fill:#0d0d0d;fill-opacity:1;fill-rule:nonzero;stroke:none;stroke-width:0.35277775"
         d="m 93.019829,159.10824 v -1.43721 h -0.43815 v 1.4291 c 0,0.5401 0.282575,0.7687 0.822678,0.7687 0.538692,0 0.821267,-0.2286 0.821267,-0.7687 v -1.4291 h -0.436739 v 1.43721 c 0,0.25506 -0.128058,0.37889 -0.384528,0.37889 -0.257528,0 -0.384528,-0.11995 -0.384528,-0.37889" />
      <path
         id="path1404-9"
         style="fill:#0d0d0d;fill-opacity:1;fill-rule:nonzero;stroke:none;stroke-width:0.35277775"
         d="m 94.483504,158.05838 h 0.577145 v 1.77059 h 0.438503 v -1.77059 h 0.571852 v -0.38876 h -1.5875 z" />
      <path
         id="path1406"
         style="fill:#0d0d0d;fill-opacity:1;fill-rule:nonzero;stroke:none;stroke-width:0.35277775"
         d="m 96.134152,158.91245 h 0.457552 v -0.52775 h -0.457552 z m 0,0.91793 h 0.457552 v -0.52776 h -0.457552 z" />
      <path
         id="path1408-1"
         style="fill:#0d0d0d;fill-opacity:1;fill-rule:nonzero;stroke:none;stroke-width:0.35277775"
         d="m 97.702602,158.19455 0.201083,0.32808 0.453319,-0.2921 v 1.59985 h 0.43815 v -2.09585 H 98.39581 Z" />
      <path
         id="path1410"
         style="fill:#0d0d0d;fill-opacity:1;fill-rule:nonzero;stroke:none;stroke-width:0.35277775"
         d="m 100.13465,157.69572 c -0.520698,0 -0.813151,0.30586 -0.813151,1.09961 0,0.79375 0.292453,1.0735 0.813151,1.0735 0.52105,0 0.81315,-0.27975 0.81315,-1.0735 0,-0.79375 -0.2921,-1.09961 -0.81315,-1.09961 m 0.004,0.3803 c 0.25365,0 0.35842,0.17356 0.35842,0.71931 0,0.514 -0.10477,0.6918 -0.35842,0.6918 -0.255056,0 -0.365123,-0.1778 -0.365123,-0.6918 0,-0.54575 0.110067,-0.71931 0.365123,-0.71931" />
      <path
         id="path1412-9"
         style="fill:#0d0d0d;fill-opacity:1;fill-rule:nonzero;stroke:none;stroke-width:0.35277775"
         d="m 101.9123,157.69572 c -0.51929,0 -0.81174,0.30586 -0.81174,1.09961 0,0.79375 0.29245,1.0735 0.81174,1.0735 0.52105,0 0.81315,-0.27975 0.81315,-1.0735 0,-0.79375 -0.2921,-1.09961 -0.81315,-1.09961 m 0.004,0.3803 c 0.25365,0 0.35842,0.17356 0.35842,0.71931 0,0.514 -0.10477,0.6918 -0.35842,0.6918 -0.25506,0 -0.36513,-0.1778 -0.36513,-0.6918 0,-0.54575 0.11007,-0.71931 0.36513,-0.71931" />
      <path
         id="path1414"
         style="fill:#0d0d0d;fill-opacity:1;fill-rule:nonzero;stroke:none;stroke-width:0.35277775"
         d="m 102.99003,158.79286 h 0.9398 v 0.38735 h -0.9398 z" />
      <path
         id="path1416-6"
         style="fill:#0d0d0d;fill-opacity:1;fill-rule:nonzero;stroke:none;stroke-width:0.35277775"
         d="m 105.6715,159.83038 v -0.38171 h -0.86925 l 0.36513,-0.32949 c 0.34572,-0.31397 0.4699,-0.50024 0.4699,-0.82268 0,-0.38982 -0.2025,-0.60078 -0.68227,-0.60078 -0.31821,0 -0.6283,0.0967 -0.6283,0.0967 l 0.0219,0.33902 c 0,0 0.27869,-0.0469 0.49495,-0.0469 0.24376,0 0.34325,0.0631 0.34325,0.27411 0,0.20391 -0.15311,0.36512 -0.42616,0.64488 l -0.44768,0.45473 v 0.37218 z" />
      <path
         id="path1418"
         style="fill:#0d0d0d;fill-opacity:1;fill-rule:nonzero;stroke:none;stroke-width:0.35277775"
         d="m 106.90093,159.83038 h 0.43815 v -0.34607 h 0.19967 v -0.38171 h -0.19967 v -0.58702 h -0.43815 v 0.58702 h -0.4505 l 0.56198,-1.36807 h -0.48366 l -0.51682,1.41499 v 0.33479 h 0.889 z" />
      <path
         id="path1420-9"
         style="fill:#0d0d0d;fill-opacity:1;fill-rule:nonzero;stroke:none;stroke-width:0.35277775"
         d="m 108.55193,157.69572 c -0.52106,0 -0.81316,0.30586 -0.81316,1.09961 0,0.79375 0.2921,1.0735 0.81316,1.0735 0.5207,0 0.8128,-0.27975 0.8128,-1.0735 0,-0.79375 -0.2921,-1.09961 -0.8128,-1.09961 m 0.002,0.3803 c 0.25506,0 0.35983,0.17356 0.35983,0.71931 0,0.514 -0.10477,0.6918 -0.35983,0.6918 -0.25329,0 -0.36513,-0.1778 -0.36513,-0.6918 0,-0.54575 0.11184,-0.71931 0.36513,-0.71931" />
      <path
         id="path1422"
         style="fill:#0d0d0d;fill-opacity:1;fill-rule:nonzero;stroke:none;stroke-width:0.35277775"
         d="m 110.84498,157.67103 -0.375,1.77623 h -0.14323 l -0.375,-1.77623 h -0.46002 l 0.50129,2.15794 h 0.81034 l 0.50165,-2.15794 z" />
      <path
         id="path1424-3"
         style="fill:#0d0d0d;fill-opacity:1;fill-rule:nonzero;stroke:none;stroke-width:0.35277775"
         d="m 113.6284,158.78863 c 0,0 -0.19967,0.12135 -0.32385,0.12135 -0.15134,0 -0.47272,-0.14217 -0.64347,-0.14217 -0.19156,0 -0.39123,0.16546 -0.39123,0.16546 l 0.0314,0.34184 c 0,0 0.19439,-0.12559 0.34608,-0.12559 0.12136,0 0.47696,0.14076 0.6477,0.14076 0.19156,0 0.35948,-0.16122 0.35948,-0.16122 z" />
      <path
         id="path1426"
         style="fill:#0d0d0d;fill-opacity:1;fill-rule:nonzero;stroke:none;stroke-width:0.35277775"
         d="m 90.977599,161.70328 -0.05644,1.13383 0.26035,0.0607 c 0,0 0.174978,-0.0564 0.396875,-0.0564 0.200025,0 0.2921,0.0882 0.2921,0.30056 0,0.19967 -0.1143,0.31397 -0.321027,0.31397 -0.257528,0 -0.640645,-0.0607 -0.640645,-0.0607 l -0.04833,0.32385 c 0,0 0.416277,0.11854 0.74295,0.11854 0.4572,0 0.717902,-0.26988 0.717902,-0.74542 0,-0.44098 -0.250825,-0.63112 -0.67945,-0.63112 -0.1778,0 -0.375002,0.0773 -0.375002,0.0773 l 0.05398,-0.45332 h 0.936977 v -0.38171 z" />
      <path
         id="path1428-3"
         style="fill:#0d0d0d;fill-opacity:1;fill-rule:nonzero;stroke:none;stroke-width:0.35277775"
         d="m 93.368727,161.66447 c -0.521053,0 -0.813153,0.30586 -0.813153,1.09961 0,0.79375 0.2921,1.0735 0.813153,1.0735 0.5207,0 0.8128,-0.27975 0.8128,-1.0735 0,-0.79375 -0.2921,-1.09961 -0.8128,-1.09961 m 0.0039,0.3803 c 0.253647,0 0.358422,0.17356 0.358422,0.71931 0,0.514 -0.104775,0.6918 -0.358422,0.6918 -0.254705,0 -0.365125,-0.1778 -0.365125,-0.6918 0,-0.54575 0.11042,-0.71931 0.365125,-0.71931" />
      <path
         id="path1430"
         style="fill:#0d0d0d;fill-opacity:1;fill-rule:nonzero;stroke:none;stroke-width:0.35277775"
         d="m 94.435174,162.76161 h 0.9398 v 0.38735 h -0.9398 z" />
      <path
         id="path1432-8"
         style="fill:#0d0d0d;fill-opacity:1;fill-rule:nonzero;stroke:none;stroke-width:0.35277775"
         d="m 97.166379,161.75549 c 0,0 -0.362302,-0.091 -0.628297,-0.091 -0.537633,0 -0.87383,0.29492 -0.87383,1.09714 0,0.66534 0.244122,1.07597 0.803627,1.07597 0.47237,0 0.768703,-0.23001 0.768703,-0.70414 0,-0.47132 -0.248003,-0.67804 -0.720725,-0.67804 -0.152753,0 -0.400755,0.0829 -0.400755,0.0787 0,-0.28787 0.133702,-0.48931 0.42298,-0.48931 0.265995,0 0.589845,0.0483 0.589845,0.0483 z m -0.688975,1.08162 c 0.197203,0 0.30727,0.10195 0.30727,0.29633 0,0.20532 -0.1143,0.32244 -0.316795,0.32244 -0.267405,0 -0.3556,-0.24518 -0.3556,-0.54963 0,0 0.19297,-0.0691 0.365125,-0.0691" />
      <path
         id="path1434"
         style="fill:#0d0d0d;fill-opacity:1;fill-rule:nonzero;stroke:none;stroke-width:0.35277775"
         d="m 98.220479,161.66447 c -0.5207,0 -0.8128,0.30586 -0.8128,1.09961 0,0.79375 0.2921,1.0735 0.8128,1.0735 0.521053,0 0.813153,-0.27975 0.813153,-1.0735 0,-0.79375 -0.2921,-1.09961 -0.813153,-1.09961 m 0.0028,0.3803 c 0.253647,0 0.358422,0.17356 0.358422,0.71931 0,0.514 -0.104775,0.6918 -0.358422,0.6918 -0.253647,0 -0.365125,-0.1778 -0.365125,-0.6918 0,-0.54575 0.111478,-0.71931 0.365125,-0.71931" />
      <path
         id="path1436-0"
         style="fill:#0d0d0d;fill-opacity:1;fill-rule:nonzero;stroke:none;stroke-width:0.35277775"
         d="m 100.59503,163.79913 h 0.43815 v -2.15935 h -0.43815 v 0.88335 h -0.803278 v -0.88335 h -0.438503 v 2.15935 h 0.438503 v -0.8957 h 0.803278 z" />
      <path
         id="path1438"
         style="fill:#0d0d0d;fill-opacity:1;fill-rule:nonzero;stroke:none;stroke-width:0.35277775"
         d="m 101.3983,162.59051 h 0.6671 l -0.6671,0.82691 v 0.38171 h 1.17828 v -0.38171 h -0.66711 l 0.66711,-0.82691 v -0.37888 h -1.17828 z" />
      <path
         id="path1440-5"
         style="fill:#0d0d0d;fill-opacity:1;fill-rule:nonzero;stroke:none;stroke-width:0.35277775"
         d="m 102.77378,164.18895 h 0.3429 l 0.2854,-0.82515 h -0.4699 z" />
      <path
         id="path1442"
         style="fill:#0d0d0d;fill-opacity:1;fill-rule:nonzero;stroke:none;stroke-width:0.35277775"
         d="m 104.46852,162.10403 c 0,0 0.30198,-0.0579 0.54999,-0.0579 0.21484,0 0.31432,0.0759 0.31432,0.22613 0,0.14182 -0.12418,0.28505 -0.26741,0.28505 H 104.6435 V 162.92 h 0.42192 c 0.18169,0 0.30445,0.10055 0.30445,0.25612 0,0.19438 -0.11006,0.27975 -0.32667,0.27975 -0.24095,0 -0.59655,-0.0607 -0.59655,-0.0607 l -0.0222,0.33373 c 0,0 0.37077,0.10866 0.68227,0.10866 0.51118,0 0.71509,-0.2286 0.71509,-0.67099 0,-0.28257 -0.10866,-0.35842 -0.28223,-0.45332 0.15134,-0.10195 0.24377,-0.2413 0.24377,-0.4699 0,-0.39017 -0.18062,-0.57749 -0.73307,-0.57749 -0.31856,0 -0.61066,0.1143 -0.61066,0.1143 z" />
      <path
         id="path1444-6"
         style="fill:#0d0d0d;fill-opacity:1;fill-rule:nonzero;stroke:none;stroke-width:0.35277775"
         d="m 106.19961,163.27137 h 0.45755 v 0.52776 h -0.45755 z" />
      <path
         id="path1446"
         style="fill:#0d0d0d;fill-opacity:1;fill-rule:nonzero;stroke:none;stroke-width:0.35277775"
         d="m 108.39882,163.79913 v -0.38171 h -0.8696 l 0.36513,-0.32949 c 0.34607,-0.31397 0.4699,-0.50024 0.4699,-0.82268 0,-0.38982 -0.20249,-0.60078 -0.68192,-0.60078 -0.31856,0 -0.62865,0.0967 -0.62865,0.0967 l 0.0222,0.33902 c 0,0 0.27834,-0.0469 0.49459,-0.0469 0.24413,0 0.34326,0.0631 0.34326,0.27411 0,0.20391 -0.15311,0.36512 -0.42581,0.64488 l -0.44802,0.45473 v 0.37218 z" />
      <path
         id="path1448-6"
         style="fill:#0d0d0d;fill-opacity:1;fill-rule:nonzero;stroke:none;stroke-width:0.35277775"
         d="m 108.66623,163.79913 h 0.43815 l 0.0854,-0.39017 h 0.7553 l 0.0868,0.39017 h 0.43815 l -0.48648,-2.15935 h -0.8322 z m 0.8255,-1.79846 h 0.15275 l 0.21908,1.02658 h -0.59091 z" />
      <path
         id="path1450"
         style="fill:#0d0d0d;fill-opacity:1;fill-rule:nonzero;stroke:none;stroke-width:0.35277775"
         d="m 113.80197,118.18602 c -0.0219,-0.001 -0.0384,-0.0194 -0.0384,-0.0413 v -1.22096 c 0,-0.0208 0.0138,-0.0374 0.0346,-0.0413 0.0854,-0.0194 0.20108,-0.0275 0.31397,-0.0275 0.17498,0 0.29774,0.0342 0.38594,0.11289 0.073,0.0635 0.11147,0.15839 0.11147,0.26599 0,0.14887 -0.0797,0.25753 -0.18732,0.31962 0.0677,0.0536 0.11183,0.13793 0.13652,0.2413 0.0399,0.17356 0.073,0.29633 0.091,0.32914 0.0138,0.0289 -0.006,0.0621 -0.0388,0.0621 h -0.1651 c -0.0166,0 -0.0318,-0.007 -0.0388,-0.0219 -0.0124,-0.0265 -0.0233,-0.0607 -0.037,-0.11324 -0.0152,-0.0494 -0.0303,-0.11571 -0.0483,-0.19297 -0.018,-0.0811 -0.0413,-0.13088 -0.0716,-0.16122 -0.0289,-0.0289 -0.0688,-0.0427 -0.1337,-0.0455 h -0.1076 v 0.49354 c 0,0.0233 -0.0191,0.0413 -0.0427,0.0413 z m 0.20673,-0.7426 h 0.11994 c 0.0773,0 0.13652,-0.0222 0.17498,-0.054 0.0402,-0.0332 0.0607,-0.0769 0.0607,-0.13617 0,-0.0706 -0.0219,-0.11183 -0.0607,-0.14076 -0.0399,-0.0303 -0.10196,-0.0469 -0.18027,-0.0469 -0.0593,0 -0.091,0.006 -0.11465,0.01 z" />
      <path
         id="path1452-4"
         style="fill:#0d0d0d;fill-opacity:1;fill-rule:nonzero;stroke:none;stroke-width:0.35277775"
         d="m 114.15475,116.36569 c -0.64629,0 -1.17546,0.52917 -1.17546,1.17546 0,0.64487 0.52917,1.17263 1.17546,1.17263 0.64628,0 1.17439,-0.52776 1.17439,-1.17263 0,-0.64629 -0.52811,-1.17546 -1.17439,-1.17546 m 0,0.32526 c 0.47131,0 0.84913,0.37747 0.84913,0.8502 0,0.47131 -0.37782,0.84737 -0.84913,0.84737 -0.47132,0 -0.8502,-0.37606 -0.8502,-0.84737 0,-0.47273 0.3803,-0.8502 0.8502,-0.8502" />
      <path
         id="path1454"
         style="fill:#0d0d0d;fill-opacity:1;fill-rule:nonzero;stroke:none;stroke-width:0.35277775"
         d="m 110.37508,147.67612 h -6.77474 c -0.0963,0 -0.19156,-0.0332 -0.26847,-0.0924 -0.19296,-0.14746 -0.23036,-0.42439 -0.0815,-0.61877 l 3.38738,-4.41254 c 0.0233,-0.0314 0.0508,-0.0579 0.0811,-0.0825 0.19297,-0.14887 0.47131,-0.11148 0.61877,0.0825 l 3.38737,4.41254 c 0.0593,0.0787 0.091,0.17356 0.091,0.26741 0,0.24518 -0.1972,0.44379 -0.44097,0.44379 m 0.87489,-1.11337 -3.38738,-4.41677 c -0.37041,-0.48084 -1.06362,-0.57327 -1.54587,-0.20109 -0.0773,0.0579 -0.14605,0.12665 -0.20425,0.20109 l -3.38703,4.41677 c -0.37076,0.48366 -0.27975,1.17546 0.20391,1.54728 0.19156,0.14747 0.42863,0.22755 0.67098,0.22755 h 6.77475 c 0.60889,0 1.10349,-0.49213 1.10349,-1.10525 0,-0.2399 -0.0797,-0.47555 -0.2286,-0.66958" />
      <path
         id="path1456-0"
         style="fill:#0d0d0d;fill-opacity:1;fill-rule:nonzero;stroke:none;stroke-width:0.35277775"
         d="m 108.60414,144.72832 c 0.0868,-0.0854 0.0868,-0.2286 0,-0.31256 -0.0854,-0.0868 -0.22613,-0.0868 -0.3115,0 l -1.31728,1.31726 c -0.0138,0.0138 -0.0303,0.0219 -0.0497,0.0289 -0.0579,0.0152 -0.11853,-0.0208 -0.13511,-0.0787 l -0.14746,-0.55385 c -0.0314,-0.11713 -0.15275,-0.18874 -0.26988,-0.15699 -0.11853,0.0317 -0.18873,0.15416 -0.15734,0.27129 l 0.26459,0.98671 c 0.0416,0.15594 0.20285,0.24942 0.35983,0.20815 0.0497,-0.0138 0.0953,-0.0427 0.13088,-0.0773 z" />
      <path
         id="path1458"
         style="fill:#0d0d0d;fill-opacity:1;fill-rule:nonzero;stroke:none;stroke-width:0.35277775"
         d="m 107.66716,143.69891 c -1.03081,-0.37606 -2.17064,0.15451 -2.54529,1.18533 -0.37606,1.03082 0.15558,2.1717 1.18639,2.54635 1.03082,0.37642 2.17064,-0.15557 2.5467,-1.18639 0.0787,-0.21766 0.11995,-0.45049 0.11995,-0.68051 0,-0.12277 -0.0991,-0.22048 -0.2219,-0.22048 -0.12135,0 -0.22049,0.0977 -0.22049,0.22048 0,0.18168 -0.0318,0.36089 -0.0924,0.52917 -0.2921,0.80186 -1.17827,1.21391 -1.98014,0.92322 -0.80221,-0.2921 -1.21532,-1.17828 -0.92322,-1.97908 0.29069,-0.80187 1.17828,-1.21533 1.98015,-0.92323 0.1143,0.0413 0.2413,-0.0194 0.28257,-0.13229 0.0413,-0.1143 -0.018,-0.24236 -0.13229,-0.28257" />
      <path
         id="path1460-0"
         style="fill:#0d0d0d;fill-opacity:1;fill-rule:nonzero;stroke:none;stroke-width:0.35277775"
         d="m 76.841794,153.89807 c -0.182034,0.03 -0.521053,0.0646 -0.737306,0.0646 -0.570442,0 -0.676628,-0.27975 -0.676628,-1.07633 0,-0.82126 0.130881,-1.07879 0.664281,-1.07879 0.208139,0 0.559505,0.0328 0.749653,0.0674 l 0.01658,-0.3803 c -0.182034,-0.0441 -0.529167,-0.10618 -0.829734,-0.10618 -0.868186,0 -1.087261,0.45191 -1.087261,1.49789 0,0.98954 0.202494,1.49543 1.087261,1.49543 0.271639,0 0.626886,-0.0512 0.8255,-0.0952 z" />
      <path
         id="path1462"
         style="fill:#0d0d0d;fill-opacity:1;fill-rule:nonzero;stroke:none;stroke-width:0.35277775"
         d="m 77.107788,154.33481 h 0.4699 l 0.156986,-0.62442 h 1.113367 l 0.157339,0.62442 h 0.47378 l -0.720725,-2.90089 H 77.82428 Z m 1.080205,-2.50684 h 0.210962 l 0.3556,1.46896 h -0.926042 z" />
      <path
         id="path1464-4"
         style="fill:#0d0d0d;fill-opacity:1;fill-rule:nonzero;stroke:none;stroke-width:0.35277775"
         d="m 79.894027,154.33481 h 0.4699 v -2.49026 h 0.05927 l 0.901347,2.49026 h 0.804686 v -2.90089 h -0.4699 v 2.48461 h -0.0635 l -0.880534,-2.48461 H 79.89403 Z" />
      <path
         id="path1466"
         style="fill:#0d0d0d;fill-opacity:1;fill-rule:nonzero;stroke:none;stroke-width:0.35277775"
         d="m 83.729074,151.43392 h 0.4699 v 2.90089 h -0.4699 z" />
      <path
         id="path1468-6"
         style="fill:#0d0d0d;fill-opacity:1;fill-rule:nonzero;stroke:none;stroke-width:0.35277775"
         d="m 86.65466,153.89807 c -0.18168,0.03 -0.5207,0.0646 -0.737305,0.0646 -0.570442,0 -0.676628,-0.27975 -0.676628,-1.07633 0,-0.82126 0.131233,-1.07879 0.66428,-1.07879 0.208139,0 0.559506,0.0328 0.749653,0.0674 l 0.01658,-0.3803 c -0.181681,-0.0441 -0.529167,-0.10618 -0.829381,-0.10618 -0.868186,0 -1.088672,0.4519 -1.088672,1.49789 0,0.98954 0.203906,1.49543 1.088672,1.49543 0.271286,0 0.626886,-0.0512 0.825147,-0.0952 z" />
      <path
         id="path1470"
         style="fill:#0d0d0d;fill-opacity:1;fill-rule:nonzero;stroke:none;stroke-width:0.35277775"
         d="m 87.183827,154.33481 h 1.8288 v -0.41628 h -1.3589 v -0.84596 h 1.105253 v -0.40675 h -1.105253 v -0.82127 h 1.3589 v -0.41063 h -1.8288 z" />
      <path
         id="path1472-2"
         style="fill:#0d0d0d;fill-opacity:1;fill-rule:nonzero;stroke:none;stroke-width:0.35277775"
         d="m 91.25206,151.48507 c 0,0 -0.54998,-0.10054 -0.919339,-0.10054 -0.579966,0 -0.964494,0.23953 -0.964494,0.82514 0,0.50165 0.271286,0.69321 0.897114,0.85443 0.444852,0.10478 0.575733,0.19015 0.575733,0.43709 0,0.30304 -0.1651,0.46426 -0.524933,0.46426 -0.300214,0 -0.87242,-0.0773 -0.87242,-0.0773 l -0.04657,0.37888 c 0,0 0.571852,0.11466 0.949325,0.11466 0.570441,0 0.968727,-0.27588 0.968727,-0.91088 0,-0.49494 -0.220486,-0.65616 -0.82938,-0.8255 -0.494947,-0.13652 -0.6477,-0.19861 -0.6477,-0.4699 0,-0.24941 0.18168,-0.37641 0.53728,-0.37641 0.245181,0 0.837847,0.0677 0.837847,0.0677 z" />
      <path
         id="path1474"
         style="fill:#0d0d0d;fill-opacity:1;fill-rule:nonzero;stroke:none;stroke-width:0.35277775"
         d="m 92.677988,152.98437 h 1.266472 v 0.4191 h -1.266472 z" />
      <path
         id="path1476-6"
         style="fill:#0d0d0d;fill-opacity:1;fill-rule:nonzero;stroke:none;stroke-width:0.35277775"
         d="m 95.464579,151.98531 c 0,0 0.396875,-0.0815 0.748242,-0.0815 0.343253,0 0.487892,0.1143 0.487892,0.36795 0,0.24659 -0.22472,0.43673 -0.424392,0.43673 h -0.562328 v 0.39441 h 0.562328 c 0.275519,0.004 0.479425,0.13476 0.479425,0.41733 0,0.30586 -0.165453,0.44521 -0.508353,0.45085 -0.3556,0 -0.821266,-0.0857 -0.821266,-0.0857 l -0.03034,0.36407 c 0,0 0.487539,0.13229 0.914752,0.13229 0.660048,0 0.931687,-0.2921 0.931687,-0.87383 0,-0.40499 -0.169334,-0.51682 -0.422981,-0.63394 0.151342,-0.10336 0.367947,-0.2674 0.367947,-0.63253 0,-0.50553 -0.2413,-0.74824 -0.944033,-0.74824 -0.422981,0 -0.817033,0.13511 -0.817033,0.13511 z" />
      <path
         id="path1478"
         style="fill:#0d0d0d;fill-opacity:1;fill-rule:nonzero;stroke:none;stroke-width:0.35277775"
         d="m 98.173913,151.15981 c 0,0 -0.474134,0.93133 -0.474134,1.90041 0,0.97014 0.474134,1.80375 0.474134,1.80375 h 0.435327 c 0,0 -0.402519,-0.97578 -0.402519,-1.80375 0,-0.83114 0.402519,-1.90041 0.402519,-1.90041 z" />
      <path
         id="path1480-7"
         style="fill:#0d0d0d;fill-opacity:1;fill-rule:nonzero;stroke:none;stroke-width:0.35277775"
         d="m 99.074907,151.43392 v 2.90089 h 1.134183 c 0.56374,0 0.92322,-0.22895 0.92322,-0.82127 0,-0.39828 -0.1651,-0.57608 -0.41452,-0.67381 0.23284,-0.12841 0.3429,-0.30056 0.3429,-0.65193 0,-0.53763 -0.30868,-0.75388 -0.88476,-0.75388 z m 1.101023,1.63441 c 0.22895,0 0.47413,0.0896 0.47413,0.41875 0,0.34749 -0.17357,0.44098 -0.46567,0.44098 h -0.639583 v -0.85973 z m -0.0261,-1.22801 c 0.28822,0 0.43285,0.12276 0.43285,0.4011 0,0.2854 -0.12841,0.43004 -0.41486,0.43004 h -0.623007 v -0.83114 z" />
      <path
         id="path1482"
         style="fill:#0d0d0d;fill-opacity:1;fill-rule:nonzero;stroke:none;stroke-width:0.35277775"
         d="m 101.46321,151.15981 c 0,0 0.40111,1.06927 0.40111,1.90041 0,0.82797 -0.40111,1.80375 -0.40111,1.80375 h 0.43533 c 0,0 0.47413,-0.83361 0.47413,-1.80375 0,-0.96908 -0.47413,-1.90041 -0.47413,-1.90041 z" />
      <path
         id="path1484-5"
         style="fill:#0d0d0d;fill-opacity:1;fill-rule:nonzero;stroke:none;stroke-width:0.35277775"
         d="m 103.62115,154.296 0.40252,0.14499 1.21109,-2.98097 -0.4064,-0.14887 z" />
      <path
         id="path1486"
         style="fill:#0d0d0d;fill-opacity:1;fill-rule:nonzero;stroke:none;stroke-width:0.35277775"
         d="m 106.62682,154.33481 h 0.4699 v -2.49026 h 0.0593 l 0.90241,2.49026 h 0.80327 v -2.90089 h -0.4699 v 2.48461 h -0.0631 l -0.88053,-2.48461 h -0.82127 z" />
      <path
         id="path1488-6"
         style="fill:#0d0d0d;fill-opacity:1;fill-rule:nonzero;stroke:none;stroke-width:0.35277775"
         d="m 109.53159,154.33481 h 0.4699 v -2.37984 h 0.0635 l 0.68616,2.25989 h 0.49071 l 0.68615,-2.25989 h 0.0635 v 2.37984 h 0.47378 v -2.90089 h -0.82127 l -0.6477,2.26412 -0.6477,-2.26412 h -0.81703 z" />
      <path
         id="path1490"
         style="fill:#0d0d0d;fill-opacity:1;fill-rule:nonzero;stroke:none;stroke-width:0.35277775"
         d="m 113.12957,151.43392 v 2.90089 h 1.13418 c 0.56374,0 0.92322,-0.22895 0.92322,-0.82127 0,-0.39828 -0.16545,-0.57608 -0.41486,-0.67381 0.23318,-0.12841 0.34325,-0.30056 0.34325,-0.65193 0,-0.53763 -0.30868,-0.75388 -0.88477,-0.75388 z m 1.10102,1.63441 c 0.22896,0 0.47413,0.0896 0.47413,0.41875 0,0.34749 -0.17356,0.44098 -0.46566,0.44098 h -0.63959 v -0.85973 z m -0.0261,-1.22801 c 0.28787,0 0.43286,0.12276 0.43286,0.4011 0,0.2854 -0.127,0.43004 -0.41487,0.43004 h -0.623 v -0.83114 z" />
      <path
         id="path1492-9"
         style="fill:#0d0d0d;fill-opacity:1;fill-rule:nonzero;stroke:none;stroke-width:0.35277775"
         d="m 116.57621,152.98437 h 1.26506 v 0.4191 h -1.26506 z" />
      <path
         id="path1494"
         style="fill:#0d0d0d;fill-opacity:1;fill-rule:nonzero;stroke:none;stroke-width:0.35277775"
         d="m 119.34869,151.98531 c 0,0 0.39829,-0.0815 0.74966,-0.0815 0.34184,0 0.48647,0.1143 0.48647,0.36795 0,0.24659 -0.22471,0.43673 -0.42297,0.43673 h -0.56374 v 0.39441 h 0.56374 c 0.2741,0.004 0.47801,0.13476 0.47801,0.41733 0,0.30586 -0.16545,0.44521 -0.50835,0.45085 -0.3556,0 -0.82127,-0.0857 -0.82127,-0.0857 l -0.0289,0.36407 c 0,0 0.48648,0.13229 0.91334,0.13229 0.6604,0 0.93169,-0.2921 0.93169,-0.87383 0,-0.40499 -0.16934,-0.51682 -0.42298,-0.63394 0.15169,-0.10336 0.36794,-0.2674 0.36794,-0.63253 0,-0.50553 -0.2413,-0.74824 -0.94403,-0.74824 -0.42298,0 -0.81703,0.13511 -0.81703,0.13511 z" />
      <path
         id="path1496-8"
         style="fill:#0d0d0d;fill-opacity:1;fill-rule:nonzero;stroke:none;stroke-width:0.35277775"
         d="m 122.08695,151.15981 c 0,0 -0.47413,0.93133 -0.47413,1.90041 0,0.97014 0.47413,1.80375 0.47413,1.80375 h 0.43674 c 0,0 -0.40252,-0.97578 -0.40252,-1.80375 0,-0.83114 0.40252,-1.90041 0.40252,-1.90041 z" />
      <path
         id="path1498"
         style="fill:#0d0d0d;fill-opacity:1;fill-rule:nonzero;stroke:none;stroke-width:0.35277775"
         d="m 122.98936,151.43392 v 2.90089 h 1.13418 c 0.56374,0 0.92322,-0.22895 0.92322,-0.82127 0,-0.39828 -0.1651,-0.57608 -0.41451,-0.67381 0.23283,-0.12841 0.3429,-0.30056 0.3429,-0.65193 0,-0.53763 -0.3101,-0.75388 -0.88583,-0.75388 z m 1.09996,1.63441 c 0.2286,0 0.47519,0.0896 0.47519,0.41875 0,0.34749 -0.17356,0.44098 -0.46566,0.44098 h -0.63959 v -0.85973 z m -0.0251,-1.22801 c 0.28822,0 0.43145,0.12276 0.43145,0.4011 0,0.2854 -0.127,0.43004 -0.41487,0.43004 h -0.62159 v -0.83114 z" />
      <path
         id="path1500-7"
         style="fill:#0d0d0d;fill-opacity:1;fill-rule:nonzero;stroke:none;stroke-width:0.35277775"
         d="m 125.37625,151.15981 c 0,0 0.40252,1.06927 0.40252,1.90041 0,0.82797 -0.40252,1.80375 -0.40252,1.80375 h 0.43674 c 0,0 0.47413,-0.83361 0.47413,-1.80375 0,-0.96908 -0.47413,-1.90041 -0.47413,-1.90041 z" />
      <path
         id="path1504-2"
         d="m 86.544505,138.59755 c -1.495075,0 -2.70371,-1.20864 -2.70371,-2.70371 v -9.0923 c 0,-1.49641 1.208635,-2.70509 2.70371,-2.70509 h 28.592915 c 1.49474,0 2.70371,1.20868 2.70371,2.70509 v 9.0923 c 0,1.49507 -1.20897,2.70371 -2.70371,2.70371 z m 0,-0.28663 h 28.592915 c 1.34088,0 2.41708,-1.07583 2.41708,-2.41708 v -9.0923 c 0,-1.34274 -1.0762,-2.41846 -2.41708,-2.41846 H 86.544505 c -1.341257,0 -2.417078,1.07572 -2.417078,2.41846 v 9.0923 c 0,1.34125 1.075821,2.41708 2.417078,2.41708 z"
         style="color:#000000;font-style:normal;font-variant:normal;font-weight:normal;font-stretch:normal;font-size:medium;line-height:normal;font-family:sans-serif;font-variant-ligatures:normal;font-variant-position:normal;font-variant-caps:normal;font-variant-numeric:normal;font-variant-alternates:normal;font-feature-settings:normal;text-indent:0;text-align:start;text-decoration:none;text-decoration-line:none;text-decoration-style:solid;text-decoration-color:#000000;letter-spacing:normal;word-spacing:normal;text-transform:none;writing-mode:lr-tb;direction:ltr;text-orientation:mixed;dominant-baseline:auto;baseline-shift:baseline;text-anchor:start;white-space:normal;shape-padding:0;clip-rule:nonzero;display:inline;overflow:visible;visibility:visible;opacity:1;isolation:auto;mix-blend-mode:normal;color-interpolation:sRGB;color-interpolation-filters:linearRGB;solid-color:#000000;solid-opacity:1;vector-effect:none;fill:#0d0d0d;fill-opacity:1;fill-rule:nonzero;stroke:none;stroke-width:0.28645554;stroke-linecap:butt;stroke-linejoin:miter;stroke-miterlimit:4;stroke-dasharray:none;stroke-dashoffset:0;stroke-opacity:1;color-rendering:auto;image-rendering:auto;shape-rendering:auto;text-rendering:auto;enable-background:accumulate" />
      <path
         id="path1552"
         style="fill:#0d0d0d;fill-opacity:1;fill-rule:nonzero;stroke:none;stroke-width:0.35277775"
         d="m 91.850018,111.5605 -0.545747,1.60549 h 1.080206 z m 1.255184,3.75497 -0.370417,-1.1243 h -1.769533 l -0.381706,1.1243 h -1.156053 l 1.559984,-4.75968 h 1.714147 l 1.559983,4.75968 z" />
      <path
         id="path1554"
         style="fill:#0d0d0d;fill-opacity:1;fill-rule:nonzero;stroke:none;stroke-width:0.35277775"
         d="m 96.130271,114.29982 h 2.094442 v 1.01565 h -3.230034 v -4.77061 h 1.135592 z" />
      <path
         id="path1556"
         style="fill:#0d0d0d;fill-opacity:1;fill-rule:nonzero;stroke:none;stroke-width:0.35277775"
         d="m 100.29446,111.57144 v 0.87383 h 1.36454 v 1.00436 h -1.36454 v 0.86148 h 2.47791 v 1.00436 h -3.580341 v -4.7692 h 3.580341 v 1.02517 z" />
      <path
         id="path1558-8"
         style="fill:#0d0d0d;fill-opacity:1;fill-rule:nonzero;stroke:none;stroke-width:0.35277775"
         d="m 106.54815,111.5605 h -1.55998 v 1.10243 h 1.55998 z m 0.56762,-1.01423 c 0.1531,0 0.28399,0.0494 0.39299,0.14746 0.10866,0.0963 0.16369,0.21484 0.16369,0.35419 v 2.11807 c 0,0.14464 -0.055,0.26706 -0.16369,0.36513 -0.109,0.0963 -0.23989,0.14746 -0.39299,0.14746 h -2.1276 v 1.63689 h -1.1356 v -4.7692 h 3.2632" />
      <path
         id="path1560"
         style="fill:#0d0d0d;fill-opacity:1;fill-rule:nonzero;stroke:none;stroke-width:0.35277775"
         d="m 112.43107,110.54627 v 4.7692 h -1.10243 v -1.60408 h -1.55046 v 1.60408 h -1.12289 v -4.7692 h 1.12289 v 2.14982 h 1.55046 v -2.14982 z" />
      <path
         id="path1562-2"
         style="fill:#0d0d0d;fill-opacity:1;fill-rule:nonzero;stroke:none;stroke-width:0.35277775"
         d="m 90.266752,119.10783 h 1.189214 v -2.04223 h -1.189214 z m 1.612194,0.75953 h -2.035528 c -0.1143,0 -0.212019,-0.0374 -0.293511,-0.10619 -0.08255,-0.0702 -0.122414,-0.1598 -0.122414,-0.27022 v -2.80847 c 0,-0.10336 0.03986,-0.19155 0.122414,-0.26458 0.08149,-0.073 0.179211,-0.11007 0.293511,-0.11007 h 2.035528 c 0.1143,0 0.210608,0.037 0.293511,0.11007 0.08114,0.073 0.121356,0.16122 0.121356,0.26458 v 2.80847 c 0,0.11042 -0.04022,0.20002 -0.121356,0.27022 -0.0829,0.0688 -0.179211,0.10619 -0.293511,0.10619" />
      <path
         id="path1564"
         style="fill:#0d0d0d;fill-opacity:1;fill-rule:nonzero;stroke:none;stroke-width:0.35277775"
         d="m 95.005615,118.47389 h -1.164519 v 0.64382 h 1.164519 z m -1.164519,-0.76482 h 1.164519 v -0.635 h -1.164519 z m 1.580797,-1.40124 c 0.108656,0 0.203906,0.037 0.289278,0.11007 0.08396,0.073 0.125589,0.16263 0.125589,0.27305 v 2.8 c 0,0.11042 -0.04163,0.20002 -0.125589,0.27022 -0.08537,0.0688 -0.180622,0.10619 -0.289278,0.10619 h -2.411589 v -3.55953 h 2.411589" />
      <path
         id="path1566-9"
         style="fill:#0d0d0d;fill-opacity:1;fill-rule:nonzero;stroke:none;stroke-width:0.35277775"
         d="m 99.175449,116.30783 v 3.17642 c 0,0.10865 -0.03986,0.19826 -0.122414,0.27128 -0.08008,0.073 -0.179211,0.11183 -0.2921,0.11183 h -1.865842 c -0.113241,0 -0.210961,-0.0388 -0.292453,-0.11183 -0.08114,-0.073 -0.122413,-0.16263 -0.122413,-0.27128 v -1.5808 h 0.839258 v 1.20438 h 1.010003 v -2.8 h 0.845961" />
      <path
         id="path1568"
         style="fill:#0d0d0d;fill-opacity:1;fill-rule:nonzero;stroke:none;stroke-width:0.35277775"
         d="m 100.8208,117.07407 v 0.65158 h 1.01847 v 0.74824 h -1.01847 v 0.64382 h 1.84821 v 0.74965 h -2.670883 v -3.56094 h 2.670883 v 0.76765 z" />
      <path
         id="path1570"
         style="fill:#0d0d0d;fill-opacity:1;fill-rule:nonzero;stroke:none;stroke-width:0.35277775"
         d="m 105.17831,117.52174 v -0.44767 h -1.01846 v 2.04364 h 1.01846 v -0.44803 h 0.83785 v 0.82268 c 0,0.10901 -0.0399,0.19861 -0.12135,0.26881 -0.0811,0.0702 -0.18169,0.10619 -0.30163,0.10619 h -1.84785 c -0.11994,0 -0.21943,-0.036 -0.29774,-0.10619 -0.0787,-0.0702 -0.11854,-0.1598 -0.11854,-0.26881 v -2.80141 c 0,-0.10901 0.0399,-0.20002 0.11854,-0.27305 0.0783,-0.073 0.1778,-0.11007 0.29774,-0.11007 h 1.84785 c 0.11994,0 0.22049,0.037 0.30163,0.11007 0.0815,0.073 0.12135,0.16404 0.12135,0.27305 v 0.83079 h -0.83785" />
      <path
         id="path1572"
         style="fill:#0d0d0d;fill-opacity:1;fill-rule:nonzero;stroke:none;stroke-width:0.35277775"
         d="m 109.13613,117.05749 h -0.82268 v 2.80987 h -0.83926 v -2.80987 h -0.82127 v -0.74966 h 2.48321 z" />
      <path
         id="path1574-9"
         style="fill:#0d0d0d;fill-opacity:1;fill-rule:nonzero;stroke:none;stroke-width:0.35277775"
         d="m 112.01056,119.86736 h -2.09303 v -0.75812 h 1.67005 v -0.66675 h -1.24566 c -0.1143,0 -0.21378,-0.0388 -0.29774,-0.11183 -0.084,-0.073 -0.12665,-0.16263 -0.12665,-0.27129 v -1.39347 c 0,-0.10336 0.0427,-0.19156 0.12665,-0.26458 0.084,-0.073 0.18344,-0.11148 0.29774,-0.11148 h 2.08492 v 0.75918 h -1.66194 v 0.62724 h 1.24566 c 0.1143,0 0.21237,0.037 0.29351,0.11006 0.0815,0.073 0.12277,0.16264 0.12277,0.27305 v 1.42488 c 0,0.10865 -0.0413,0.19826 -0.12277,0.27269 -0.0811,0.073 -0.17921,0.11042 -0.29351,0.11042" />
      <path
         id="path1576"
         style="fill:#0d0d0d;fill-opacity:1;fill-rule:nonzero;stroke:none;stroke-width:0.35277775"
         d="m 89.442663,121.00013 h 0.265994 v 1.57233 h -0.265994 z" />
      <path
         id="path1578-6"
         style="fill:#0d0d0d;fill-opacity:1;fill-rule:nonzero;stroke:none;stroke-width:0.35277775"
         d="m 91.723018,121.00013 h 0.265995 v 1.57233 h -0.287867 l -0.891469,-1.14794 v 1.14794 h -0.264584 v -1.57233 h 0.264584 l 0.913341,1.17404 z" />
      <path
         id="path1580"
         style="fill:#0d0d0d;fill-opacity:1;fill-rule:nonzero;stroke:none;stroke-width:0.35277775"
         d="m 93.543704,122.32975 c 0.09066,0 0.169334,-0.0152 0.235656,-0.0455 0.06597,-0.0303 0.134761,-0.0783 0.206728,-0.14746 l 0.170744,0.17639 c -0.166864,0.18485 -0.367947,0.27693 -0.606425,0.27693 -0.237066,0 -0.433916,-0.0755 -0.591255,-0.2286 -0.156986,-0.15452 -0.235656,-0.34714 -0.235656,-0.58032 0,-0.23424 0.08008,-0.42968 0.239889,-0.58561 0.159808,-0.15558 0.360892,-0.23566 0.605014,-0.23566 0.243769,0 0.447675,0.091 0.611717,0.27164 l -0.169334,0.1845 c -0.07444,-0.073 -0.14605,-0.12241 -0.212372,-0.14993 -0.06738,-0.0293 -0.14605,-0.043 -0.235656,-0.043 -0.158397,0 -0.2921,0.0512 -0.399697,0.15311 -0.108655,0.10336 -0.162278,0.23283 -0.162278,0.39264 0,0.16122 0.05362,0.29492 0.16122,0.40111 0.105833,0.1076 0.234244,0.15981 0.381705,0.15981" />
      <path
         id="path1582-0"
         style="fill:#0d0d0d;fill-opacity:1;fill-rule:nonzero;stroke:none;stroke-width:0.35277775"
         d="m 95.969052,121.37055 c -0.107598,-0.11007 -0.238478,-0.1651 -0.395464,-0.1651 -0.155928,0 -0.286809,0.055 -0.394406,0.1651 -0.107244,0.11042 -0.161219,0.24553 -0.161219,0.40393 0,0.15839 0.05398,0.29351 0.161219,0.40358 0.107597,0.11041 0.238478,0.16686 0.394406,0.16686 0.156986,0 0.287866,-0.0564 0.395464,-0.16686 0.107244,-0.11007 0.161219,-0.24519 0.161219,-0.40358 0,-0.1584 -0.05398,-0.29351 -0.161219,-0.40393 m 0.194027,0.98531 c -0.158397,0.1531 -0.355247,0.23318 -0.589491,0.23318 -0.233186,0 -0.430036,-0.0801 -0.588434,-0.23318 -0.160161,-0.15558 -0.238477,-0.34996 -0.238477,-0.58138 0,-0.23142 0.07832,-0.42581 0.238477,-0.58032 0.158398,-0.15558 0.355248,-0.23284 0.588434,-0.23284 0.234244,0 0.431094,0.0773 0.589491,0.23284 0.15875,0.15451 0.238478,0.3489 0.238478,0.58032 0,0.23142 -0.07973,0.4258 -0.238478,0.58138" />
      <path
         id="path1584"
         style="fill:#0d0d0d;fill-opacity:1;fill-rule:nonzero;stroke:none;stroke-width:0.35277775"
         d="m 98.038799,121.7332 c 0.05503,-0.0483 0.08114,-0.12276 0.08114,-0.22472 0,-0.10336 -0.02752,-0.17215 -0.08255,-0.21096 -0.05645,-0.0385 -0.154517,-0.0579 -0.297745,-0.0579 h -0.337608 v 0.56233 H 97.734 c 0.148872,0 0.250825,-0.0219 0.3048,-0.0688 m 0.354189,-0.22472 c 0,0.26035 -0.113242,0.42439 -0.340431,0.49318 l 0.412045,0.5708 h -0.33761 L 97.75199,122.0433 h -0.349955 v 0.52916 h -0.264583 v -1.57233 h 0.5842 c 0.239888,0 0.412044,0.0384 0.515408,0.121 0.103364,0.0801 0.155928,0.20955 0.155928,0.38735" />
      <path
         id="path1586-2"
         style="fill:#0d0d0d;fill-opacity:1;fill-rule:nonzero;stroke:none;stroke-width:0.35277775"
         d="m 100.04928,121.78541 c 0.0522,-0.055 0.0801,-0.13758 0.0801,-0.24659 0,-0.10901 -0.0346,-0.18591 -0.10231,-0.23001 -0.06597,-0.0455 -0.172152,-0.0691 -0.316791,-0.0691 h -0.270228 v 0.63112 h 0.308681 c 0.147461,0 0.246944,-0.0289 0.300568,-0.0854 m 0.18732,-0.64911 c 0.11042,0.091 0.16404,0.23319 0.16404,0.42334 0,0.19156 -0.055,0.32914 -0.16686,0.41733 -0.11148,0.0882 -0.283632,0.13229 -0.513996,0.13229 h -0.279753 v 0.4632 h -0.264582 v -1.57233 h 0.539044 c 0.239536,0 0.413457,0.0455 0.522107,0.13617" />
      <path
         id="path1588"
         style="fill:#0d0d0d;fill-opacity:1;fill-rule:nonzero;stroke:none;stroke-width:0.35277775"
         d="m 102.23474,121.37055 c -0.10584,-0.11007 -0.23813,-0.1651 -0.39406,-0.1651 -0.15557,0 -0.28786,0.055 -0.39546,0.1651 -0.10619,0.11042 -0.15981,0.24553 -0.15981,0.40393 0,0.15839 0.0536,0.29351 0.15981,0.40358 0.1076,0.11041 0.23989,0.16686 0.39546,0.16686 0.15593,0 0.28822,-0.0564 0.39406,-0.16686 0.10759,-0.11007 0.16122,-0.24519 0.16122,-0.40358 0,-0.1584 -0.0536,-0.29351 -0.16122,-0.40393 m 0.19579,0.98531 c -0.15981,0.1531 -0.3556,0.23318 -0.58985,0.23318 -0.23424,0 -0.43003,-0.0801 -0.58984,-0.23318 -0.1584,-0.15558 -0.23848,-0.34996 -0.23848,-0.58138 0,-0.23142 0.0801,-0.42581 0.23848,-0.58032 0.15981,-0.15558 0.3556,-0.23284 0.58984,-0.23284 0.23425,0 0.43004,0.0773 0.58985,0.23284 0.15839,0.15451 0.23707,0.3489 0.23707,0.58032 0,0.23142 -0.0787,0.4258 -0.23707,0.58138" />
      <path
         id="path1590-7"
         style="fill:#0d0d0d;fill-opacity:1;fill-rule:nonzero;stroke:none;stroke-width:0.35277775"
         d="m 104.3059,121.7332 c 0.054,-0.0483 0.0815,-0.12276 0.0815,-0.22472 0,-0.10336 -0.0289,-0.17215 -0.084,-0.21096 -0.0554,-0.0385 -0.15452,-0.0579 -0.29634,-0.0579 h -0.3376 v 0.56233 h 0.33055 c 0.15028,0 0.25224,-0.0219 0.30586,-0.0688 m 0.35278,-0.22472 c 0,0.26035 -0.11289,0.42439 -0.33902,0.49318 l 0.41098,0.5708 H 104.393 l -0.375,-0.52916 h -0.34855 v 0.52916 h -0.26599 v -1.57233 h 0.58561 c 0.23989,0 0.41063,0.0384 0.51541,0.121 0.10195,0.0801 0.15416,0.20955 0.15416,0.38735" />
      <path
         id="path1592"
         style="fill:#0d0d0d;fill-opacity:1;fill-rule:nonzero;stroke:none;stroke-width:0.35277775"
         d="m 106.34425,121.97027 -0.28681,-0.65052 -0.28505,0.65052 z m -0.67945,0.24236 -0.1584,0.35983 h -0.28258 l 0.6918,-1.57233 h 0.28399 l 0.69285,1.57233 h -0.28363 l -0.15734,-0.35983 z" />
      <path
         id="path1594"
         style="fill:#0d0d0d;fill-opacity:1;fill-rule:nonzero;stroke:none;stroke-width:0.35277775"
         d="m 107.98113,121.2439 v 1.32856 h -0.26599 v -1.32856 h -0.4766 v -0.24377 h 1.21955 v 0.24377 z" />
      <path
         id="path1596"
         style="fill:#0d0d0d;fill-opacity:1;fill-rule:nonzero;stroke:none;stroke-width:0.35277775"
         d="m 110.25091,121.00013 v 0.24942 h -0.83926 v 0.41592 h 0.75388 v 0.23707 h -0.75388 v 0.42051 h 0.86677 v 0.24941 h -1.13277 v -1.57233 z" />
      <path
         id="path1598-6"
         style="fill:#0d0d0d;fill-opacity:1;fill-rule:nonzero;stroke:none;stroke-width:0.35277775"
         d="m 112.1679,121.784 c 0,-0.35948 -0.20673,-0.53869 -0.61877,-0.53869 h -0.266 v 1.07774 h 0.29493 c 0.19014,0 0.33619,-0.0455 0.43674,-0.13653 0.10195,-0.091 0.1531,-0.22613 0.1531,-0.40252 m 0.0399,-0.57855 c 0.15169,0.13758 0.22719,0.32773 0.22719,0.57326 0,0.24377 -0.0744,0.43674 -0.22049,0.57856 -0.14746,0.14358 -0.37183,0.21519 -0.67522,0.21519 h -0.5221 v -1.57233 h 0.5401 c 0.28117,0 0.49883,0.0688 0.65052,0.20532" />
      <path
         id="path1600"
         style="fill:#0d0d0d;fill-opacity:1;fill-rule:nonzero;stroke:none;stroke-width:0.35277775"
         d="m 97.023152,96.725845 3.905248,-2.241902 0.0649,-0.0388 0.0621,0.0388 3.90384,2.241902 2.70087,-1.561394 0.44097,-0.254705 -2.24049,-1.293989 1.56245,-0.901347 -1.41499,-0.817034 -1.41535,-0.815975 -0.004,0.0014 -0.007,-0.0056 -1.55718,0.901347 -2.03273,-1.174043 -2.032704,1.174044 -1.557161,-0.899936 -0.0081,0.0056 -0.0028,-0.0028 -1.415345,0.817033 -1.413933,0.815975 1.559983,0.901347 -2.241902,1.2954 1.303513,0.752123 z" />
      <path
         id="path1602-1"
         style="fill:#0d0d0d;fill-opacity:1;fill-rule:nonzero;stroke:none;stroke-width:0.35277775"
         d="m 100.55622,104.34902 -3.965927,-2.29023 v -4.581881 l -1.840794,-1.062566 -1.303867,-0.753886 v 2.608791 L 91.86801,97.358376 v 3.469924 l 1.577622,0.91228 v 2.13325 l 2.1209,1.22484 -1.725436,0.99519 1.415344,0.81703 1.415345,0.81598 0.0028,-0.001 0.0067,0.004 1.721203,-0.99342 2.153712,1.24283 z" />
      <path
         id="path1604"
         style="fill:#0d0d0d;fill-opacity:1;fill-rule:nonzero;stroke:none;stroke-width:0.35277775"
         d="m 105.39316,97.47832 v 4.58047 l -3.96981,2.29164 v 3.63114 l 2.13571,-1.23331 1.7018,0.98108 0.007,-0.004 0.004,10e-4 1.41394,-0.81598 1.41499,-0.81703 -1.70462,-0.98249 2.1403,-1.23754 v -2.13604 l 1.5762,-0.90946 v -3.469913 l -1.57621,0.909461 V 95.66329 l -0.44239,0.255058 z" />
      <path
         id="path1606-3"
         style="fill:#0d0d0d;fill-opacity:1;fill-rule:evenodd;stroke:none;stroke-width:0.35277775"
         d="m 104.52391,101.27068 v -3.79236 l -3.23038,-1.912761 v 3.786717 z" />
      <path
         id="path1608"
         style="fill:#0d0d0d;fill-opacity:1;fill-rule:evenodd;stroke:none;stroke-width:0.35277775"
         d="m 97.453188,101.26927 v -3.79095 l 3.230032,-1.914172 v 3.788128 z" />
      <path
         id="path1610-2"
         style="fill:#0d0d0d;fill-opacity:1;fill-rule:evenodd;stroke:none;stroke-width:0.35277775"
         d="m 100.99331,99.968226 3.20252,1.812224 -3.20252,1.81504 -3.202514,-1.81504 z" />
      <path
         id="path1612"
         style="fill:#0d0d0d;fill-opacity:1;fill-rule:nonzero;stroke:none;stroke-width:0.35277775"
         d="m 84.62901,147.12332 c -0.465667,0.46602 -1.105253,0.75248 -1.814689,0.75248 -0.709789,0 -1.349375,-0.28646 -1.81363,-0.75248 -0.465667,-0.46425 -0.752475,-1.10384 -0.752475,-1.81469 0,-0.70837 0.286808,-1.34761 0.752475,-1.81362 0.464255,-0.46567 1.103841,-0.75107 1.81363,-0.75107 0.709436,0 1.349022,0.2854 1.814689,0.75107 0.09913,0.10054 0.190147,0.20955 0.27305,0.32385 l 0.569031,-0.42157 c -0.594078,-0.82409 -1.562806,-1.36137 -2.65677,-1.36137 -1.689805,0 -3.080103,1.27988 -3.25508,2.92417 h -1.242836 v -2.14171 h 1.548694 l 0.560917,-0.70132 h -2.7686 v 6.37081 l 0.658989,-0.4826 V 145.66 h 1.242836 c 0.174977,1.64395 1.565275,2.92277 3.25508,2.92277 1.093964,0 2.062692,-0.53729 2.65677,-1.36137 l -0.569031,-0.42052 c -0.0829,0.11466 -0.173919,0.22331 -0.27305,0.32244" />
      <path
         id="path1614"
         style="fill:#0d0d0d;fill-opacity:1;fill-rule:nonzero;stroke:none;stroke-width:0.35277775"
         d="m 82.814321,144.13459 c 0.402167,0.001 0.756356,0.20108 0.967317,0.50835 l 0.570441,-0.41874 c -0.34043,-0.4826 -0.902758,-0.79799 -1.537758,-0.7994 -1.040694,0.001 -1.882422,0.84491 -1.882422,1.88383 0,1.04034 0.841728,1.88384 1.882422,1.88384 0.635,0 1.197328,-0.31715 1.537758,-0.7994 l -0.570441,-0.41875 c -0.210961,0.30728 -0.56515,0.50836 -0.967317,0.50836 -0.649111,-10e-4 -1.174397,-0.52352 -1.174397,-1.17405 0,-0.64911 0.525286,-1.17263 1.174397,-1.17404" />
    </g>
  </g>
</svg>
