<?xml version="1.0" encoding="UTF-8" standalone="no"?>
<svg
   xmlns:dc="http://purl.org/dc/elements/1.1/"
   xmlns:cc="http://creativecommons.org/ns#"
   xmlns:rdf="http://www.w3.org/1999/02/22-rdf-syntax-ns#"
   xmlns:svg="http://www.w3.org/2000/svg"
   xmlns="http://www.w3.org/2000/svg"
   viewBox="0 0 92.125984 46.062992"
   height="46.062992"
   width="92.125984"
   xml:space="preserve"
   version="1.1"
   id="svg2"><metadata
     id="metadata8"><rdf:RDF><cc:Work
         rdf:about=""><dc:format>image/svg+xml</dc:format><dc:type
           rdf:resource="http://purl.org/dc/dcmitype/StillImage" /><dc:title></dc:title></cc:Work></rdf:RDF></metadata><defs
     id="defs6" /><g
     transform="matrix(1.25,0,0,-1.25,0,46.062994)"
     id="g10"><g
       id="g12"><path
         id="path14"
         style="fill:#231f20;fill-opacity:1;fill-rule:nonzero;stroke:none"
         d="m 13.668,26.37 c 0.059,0 0.105,-0.02 0.144,-0.059 0.036,-0.039 0.051,-0.09 0.051,-0.148 l 0,-1.434 c 0,-0.058 -0.015,-0.105 -0.051,-0.144 -0.039,-0.039 -0.085,-0.063 -0.144,-0.063 l -4.691,0 c -0.137,0 -0.207,0.071 -0.207,0.207 l 0,7.192 c 0,0.136 0.07,0.207 0.207,0.207 l 1.5,0 c 0.136,0 0.207,-0.071 0.207,-0.207 l 0,-5.356 c 0,-0.058 0.019,-0.105 0.058,-0.14 0.039,-0.036 0.09,-0.055 0.149,-0.055 l 2.777,0" /><path
         id="path16"
         style="fill:#231f20;fill-opacity:1;fill-rule:nonzero;stroke:none"
         d="m 22.332,32.069 c 0.039,-0.043 0.059,-0.09 0.059,-0.148 l 0,-5.961 -0.012,0 c 0,-0.059 -0.004,-0.121 -0.02,-0.188 -0.015,-0.062 -0.031,-0.117 -0.054,-0.16 l -1,-1 C 21.254,24.581 21.191,24.561 21.117,24.546 21.039,24.53 20.973,24.522 20.914,24.522 l -3.441,0 c -0.059,0 -0.125,0.008 -0.196,0.024 -0.074,0.015 -0.136,0.035 -0.187,0.066 l -1,1 c -0.028,0.047 -0.051,0.109 -0.063,0.184 -0.015,0.07 -0.023,0.136 -0.023,0.195 l 0,5.93 c 0,0.058 0.019,0.105 0.062,0.148 0.039,0.039 0.086,0.059 0.145,0.059 l 1.5,0 c 0.059,0 0.105,-0.02 0.144,-0.059 0.043,-0.043 0.063,-0.09 0.063,-0.148 l 0,-5.356 c 0,-0.054 0.02,-0.105 0.059,-0.144 0.039,-0.039 0.089,-0.063 0.144,-0.063 l 2.152,0 c 0.059,0 0.106,0.02 0.141,0.063 0.035,0.039 0.055,0.086 0.055,0.144 l 0,5.356 c 0,0.058 0.019,0.105 0.058,0.148 0.043,0.039 0.09,0.059 0.149,0.059 l 1.508,0 c 0.058,0 0.109,-0.02 0.148,-0.059" /><path
         id="path18"
         style="fill:#231f20;fill-opacity:1;fill-rule:nonzero;stroke:none"
         d="m 30.094,26.37 c 0.058,0 0.105,-0.02 0.14,-0.059 0.036,-0.039 0.055,-0.09 0.055,-0.148 l 0,-1.434 c 0,-0.058 -0.019,-0.105 -0.055,-0.144 -0.035,-0.039 -0.082,-0.063 -0.14,-0.063 l -4.696,0 c -0.136,0 -0.203,0.071 -0.203,0.207 l 0,7.192 c 0,0.136 0.067,0.207 0.203,0.207 l 1.5,0 c 0.137,0 0.207,-0.071 0.207,-0.207 l 0,-5.356 c 0,-0.058 0.02,-0.105 0.059,-0.14 0.043,-0.036 0.09,-0.055 0.148,-0.055 l 2.782,0" /><path
         id="path20"
         style="fill:#231f20;fill-opacity:1;fill-rule:nonzero;stroke:none"
         d="m 38.227,30.554 c 0,-0.059 -0.012,-0.122 -0.043,-0.188 -0.028,-0.062 -0.059,-0.117 -0.098,-0.16 l -3.527,-3.977 3.464,0 c 0.059,0 0.106,-0.019 0.145,-0.058 0.039,-0.043 0.059,-0.09 0.059,-0.149 l 0,-1.293 c 0,-0.058 -0.02,-0.105 -0.059,-0.144 -0.039,-0.043 -0.086,-0.063 -0.145,-0.063 l -5.398,0 c -0.141,0 -0.207,0.071 -0.207,0.207 l 0,1.36 c 0,0.054 0.012,0.121 0.039,0.187 0.023,0.07 0.055,0.125 0.09,0.168 l 3.605,3.977 -3.464,0 c -0.059,0 -0.106,0.019 -0.145,0.062 -0.039,0.039 -0.059,0.086 -0.059,0.145 l 0,1.293 c 0,0.058 0.02,0.105 0.059,0.148 0.039,0.039 0.086,0.059 0.145,0.059 l 5.335,0 c 0.059,0 0.106,-0.02 0.145,-0.059 0.039,-0.039 0.059,-0.09 0.059,-0.148 l 0,-1.367" /><path
         id="path22"
         style="fill:#231f20;fill-opacity:1;fill-rule:nonzero;stroke:none"
         d="m 42.77,26.186 2.921,0 0,1.477 -2.921,0 0,-1.477 z m 0,2.934 2.921,0 0,1.355 -2.921,0 0,-1.355 z m 4.57,1.922 c 0.023,-0.051 0.043,-0.113 0.062,-0.192 0.016,-0.074 0.028,-0.14 0.028,-0.199 l 0,-1.207 c 0,-0.058 -0.016,-0.121 -0.039,-0.187 -0.028,-0.071 -0.055,-0.129 -0.094,-0.172 l -0.465,-0.598 c -0.039,-0.043 -0.055,-0.098 -0.051,-0.16 0.004,-0.066 0.024,-0.117 0.063,-0.152 l 0.441,-0.543 c 0.039,-0.043 0.07,-0.102 0.102,-0.168 0.027,-0.071 0.043,-0.133 0.043,-0.192 l 0,-1.281 c 0,-0.059 -0.012,-0.125 -0.028,-0.195 -0.019,-0.075 -0.039,-0.137 -0.062,-0.184 l -0.996,-1 C 46.293,24.581 46.227,24.561 46.152,24.546 46.074,24.53 46.008,24.522 45.953,24.522 l -4.707,0 c -0.137,0 -0.203,0.071 -0.203,0.207 l 0,7.192 c 0,0.058 0.019,0.105 0.059,0.148 0.039,0.039 0.089,0.059 0.144,0.059 l 4.707,0 c 0.055,0 0.121,-0.008 0.199,-0.028 0.075,-0.019 0.141,-0.039 0.192,-0.058 l 0.996,-1" /><path
         id="path24"
         style="fill:#231f20;fill-opacity:1;fill-rule:nonzero;stroke:none"
         d="m 54.641,30.28 -2.551,0 0,-3.922 2.551,0 0,3.922 z m 1.836,0.762 c 0.023,-0.051 0.043,-0.113 0.058,-0.184 0.02,-0.074 0.027,-0.14 0.027,-0.195 l 0,-4.672 c 0,-0.059 -0.007,-0.125 -0.027,-0.195 C 56.52,25.721 56.5,25.659 56.477,25.612 l -1,-1 c -0.051,-0.031 -0.114,-0.051 -0.192,-0.066 -0.074,-0.016 -0.14,-0.024 -0.199,-0.024 l -3.441,0 c -0.059,0 -0.125,0.008 -0.196,0.024 -0.074,0.015 -0.137,0.035 -0.187,0.066 l -1,1 c -0.028,0.047 -0.051,0.109 -0.063,0.184 -0.015,0.07 -0.023,0.136 -0.023,0.195 l 0,4.672 c 0,0.055 0.008,0.121 0.023,0.195 0.012,0.071 0.035,0.133 0.063,0.184 l 1,1 c 0.05,0.019 0.113,0.039 0.187,0.058 0.071,0.02 0.137,0.028 0.196,0.028 l 3.441,0 c 0.059,0 0.125,-0.008 0.199,-0.028 0.078,-0.019 0.141,-0.039 0.192,-0.058 l 1,-1" /><path
         id="path26"
         style="fill:#231f20;fill-opacity:1;fill-rule:nonzero;stroke:none"
         d="m 64.57,30.487 c 0,-0.058 -0.023,-0.105 -0.062,-0.144 C 64.469,30.3 64.422,30.28 64.363,30.28 l -1.543,0 c -0.058,0 -0.109,-0.019 -0.148,-0.055 -0.039,-0.035 -0.059,-0.082 -0.059,-0.14 l 0,-5.356 c 0,-0.058 -0.019,-0.105 -0.054,-0.144 -0.036,-0.043 -0.082,-0.063 -0.141,-0.063 l -1.512,0 c -0.054,0 -0.105,0.02 -0.144,0.063 -0.039,0.039 -0.059,0.086 -0.059,0.144 l 0,5.356 c 0,0.058 -0.019,0.105 -0.055,0.14 -0.039,0.036 -0.086,0.055 -0.14,0.055 l -1.543,0 c -0.059,0 -0.11,0.02 -0.149,0.063 -0.039,0.039 -0.058,0.086 -0.058,0.144 l 0,1.434 c 0,0.136 0.066,0.207 0.207,0.207 l 5.398,0 c 0.059,0 0.106,-0.02 0.145,-0.059 0.039,-0.043 0.062,-0.09 0.062,-0.148 l 0,-1.434" /><path
         id="path28"
         style="fill:#231f20;fill-opacity:1;fill-rule:nonzero;stroke:none"
         d="m 65.059,25.764 c 0,-0.011 -0.004,-0.023 -0.012,-0.027 -0.008,-0.008 -0.016,-0.012 -0.027,-0.012 l -0.305,0 c -0.012,0 -0.02,-0.007 -0.027,-0.011 -0.008,-0.008 -0.012,-0.016 -0.012,-0.028 l 0,-1.05 c 0,-0.012 -0.004,-0.02 -0.012,-0.028 -0.008,-0.008 -0.016,-0.012 -0.027,-0.012 l -0.297,0 c -0.008,0 -0.02,0.008 -0.028,0.012 -0.007,0.008 -0.011,0.016 -0.011,0.028 l 0,1.05 c 0,0.012 -0.004,0.02 -0.012,0.028 -0.004,0.007 -0.016,0.011 -0.027,0.011 l -0.301,0 c -0.012,0 -0.02,0.008 -0.027,0.012 -0.008,0.008 -0.012,0.016 -0.012,0.027 l 0,0.282 c 0,0.027 0.012,0.039 0.039,0.039 l 1.059,0 c 0.011,0 0.019,-0.008 0.027,-0.012 0.008,-0.008 0.012,-0.016 0.012,-0.027 l 0,-0.282" /><path
         id="path30"
         style="fill:#231f20;fill-opacity:1;fill-rule:nonzero;stroke:none"
         d="m 66.883,25.835 c 0.004,-0.012 0.004,-0.024 0.004,-0.035 l 0,-1.164 c 0,-0.012 -0.004,-0.02 -0.012,-0.028 -0.008,-0.008 -0.016,-0.012 -0.027,-0.012 l -0.297,0 c -0.012,0 -0.02,0.008 -0.028,0.012 -0.007,0.008 -0.011,0.016 -0.011,0.028 l 0,1.085 -0.239,0 0,-1.085 c 0,-0.012 -0.003,-0.02 -0.011,-0.028 -0.004,-0.008 -0.016,-0.012 -0.028,-0.012 l -0.265,0 c -0.012,0 -0.024,0.008 -0.031,0.012 -0.008,0.008 -0.012,0.016 -0.012,0.028 l 0,1.085 -0.238,0 0,-1.085 c 0,-0.028 -0.012,-0.04 -0.04,-0.04 l -0.293,0 c -0.027,0 -0.039,0.012 -0.039,0.04 l 0,1.41 c 0,0.011 0.004,0.019 0.012,0.027 0.008,0.008 0.016,0.012 0.027,0.012 l 1.243,0 c 0.011,0 0.023,0 0.039,-0.008 0.015,-0.008 0.027,-0.008 0.039,-0.012 l 0.195,-0.195 c 0.004,-0.012 0.008,-0.024 0.012,-0.035" /><path
         id="path32"
         style="fill:#000000;fill-opacity:1;fill-rule:nonzero;stroke:none"
         d="m 27.051,19.264 c 0.039,-0.117 0.082,-0.257 0.125,-0.421 0.039,-0.168 0.062,-0.321 0.062,-0.454 l 0,-13.656 c 0,-0.125 -0.047,-0.234 -0.14,-0.328 C 27.012,4.311 26.902,4.264 26.77,4.264 l -3.469,0 c -0.137,0 -0.246,0.047 -0.328,0.141 -0.086,0.094 -0.125,0.203 -0.125,0.328 l 0,12.781 -2.797,0 0,-12.781 C 20.051,4.608 20.008,4.499 19.926,4.405 19.84,4.311 19.73,4.264 19.598,4.264 l -3.157,0 c -0.136,0 -0.25,0.047 -0.343,0.141 -0.086,0.094 -0.125,0.203 -0.125,0.328 l 0,12.781 -2.797,0 0,-12.781 c 0,-0.312 -0.164,-0.469 -0.485,-0.469 l -3.453,0 C 8.926,4.264 8.77,4.421 8.77,4.733 l 0,16.563 c 0,0.125 0.046,0.234 0.14,0.328 0.094,0.094 0.203,0.14 0.328,0.14 l 14.61,0 c 0.132,0 0.285,-0.023 0.453,-0.062 0.176,-0.043 0.32,-0.09 0.437,-0.141 l 2.313,-2.297 z M 36.246,4.733 c 0,-0.312 -0.164,-0.469 -0.484,-0.469 l -3.453,0 c -0.313,0 -0.469,0.157 -0.469,0.469 l 0,16.563 c 0,0.312 0.156,0.468 0.469,0.468 l 3.453,0 c 0.32,0 0.484,-0.156 0.484,-0.468 l 0,-16.563 z m 19.078,14.531 c 0.051,-0.117 0.098,-0.257 0.141,-0.421 0.039,-0.168 0.062,-0.321 0.062,-0.454 l 0,-13.656 C 55.527,4.608 55.48,4.499 55.387,4.405 55.293,4.311 55.176,4.264 55.043,4.264 l -3.469,0 c -0.136,0 -0.25,0.047 -0.344,0.141 -0.085,0.094 -0.125,0.203 -0.125,0.328 l 0,12.328 c 0,0.133 -0.043,0.243 -0.125,0.328 -0.085,0.082 -0.195,0.125 -0.328,0.125 l -4.953,0 c -0.137,0 -0.25,-0.043 -0.344,-0.125 C 45.27,17.304 45.23,17.194 45.23,17.061 l 0,-12.328 c 0,-0.312 -0.164,-0.469 -0.484,-0.469 l -3.453,0 c -0.313,0 -0.469,0.157 -0.469,0.469 l 0,16.563 c 0,0.125 0.047,0.234 0.141,0.328 0.094,0.094 0.203,0.14 0.328,0.14 l 10.828,0 c 0.133,0 0.289,-0.023 0.469,-0.062 0.176,-0.043 0.32,-0.09 0.437,-0.141 l 2.297,-2.297 z M 64.535,4.733 c 0,-0.312 -0.164,-0.469 -0.484,-0.469 l -3.453,0 c -0.313,0 -0.469,0.157 -0.469,0.469 l 0,16.563 c 0,0.312 0.156,0.468 0.469,0.468 l 3.453,0 c 0.32,0 0.484,-0.156 0.484,-0.468 l 0,-16.563 z" /></g></g></svg>