<?xml version="1.0" encoding="UTF-8" standalone="no"?>
<!-- Created with Inkscape (http://www.inkscape.org/) -->

<svg
   xmlns:dc="http://purl.org/dc/elements/1.1/"
   xmlns:cc="http://creativecommons.org/ns#"
   xmlns:rdf="http://www.w3.org/1999/02/22-rdf-syntax-ns#"
   xmlns:svg="http://www.w3.org/2000/svg"
   xmlns="http://www.w3.org/2000/svg"
   xmlns:sodipodi="http://sodipodi.sourceforge.net/DTD/sodipodi-0.dtd"
   xmlns:inkscape="http://www.inkscape.org/namespaces/inkscape"
   id="svg2"
   version="1.1"
   inkscape:version="0.48.3.1 r9886"
   width="1591.25"
   height="522.5"
   xml:space="preserve"
   sodipodi:docname="Mini_Laser_Etching_ART_Only_v3.svg"><metadata
     id="metadata8"><rdf:RDF><cc:Work
         rdf:about=""><dc:format>image/svg+xml</dc:format><dc:type
           rdf:resource="http://purl.org/dc/dcmitype/StillImage" /><dc:title /></cc:Work></rdf:RDF></metadata><defs
     id="defs6"><clipPath
       clipPathUnits="userSpaceOnUse"
       id="clipPath18"><path
         d="m 0,9.98828 12721.6,0 0,4165.00002 -12721.6,0 L 0,9.98828 z"
         id="path20" /></clipPath><clipPath
       clipPathUnits="userSpaceOnUse"
       id="clipPath148"><path
         d="m 132.07,567.371 249.141,0 0,-208.711 -249.141,0 0,208.711 z"
         id="path150" /></clipPath><clipPath
       clipPathUnits="userSpaceOnUse"
       id="clipPath160"><path
         d="m 0,9.98828 12721.6,0 0,4165.00002 -12721.6,0 L 0,9.98828 z"
         id="path162" /></clipPath></defs><sodipodi:namedview
     pagecolor="#ffffff"
     bordercolor="#666666"
     borderopacity="1"
     objecttolerance="10"
     gridtolerance="10"
     guidetolerance="10"
     inkscape:pageopacity="0"
     inkscape:pageshadow="2"
     inkscape:window-width="1633"
     inkscape:window-height="853"
     id="namedview4"
     showgrid="false"
     inkscape:zoom="1.286901"
     inkscape:cx="-86.283914"
     inkscape:cy="106.67801"
     inkscape:window-x="0"
     inkscape:window-y="31"
     inkscape:window-maximized="0"
     inkscape:current-layer="g10" /><g
     id="g10"
     inkscape:groupmode="layer"
     inkscape:label="ink_ext_XXXXXX"
     transform="matrix(1.25,0,0,-1.25,0,522.5)"><g
       id="g12"
       transform="scale(0.1,0.1)"><g
         id="g14"><g
           id="g16"
           clip-path="url(#clipPath18)"><path
             d="m 6169.3,3078.46 124.33,-215.39 -248.71,0 124.38,215.39 z m 0,52.19 -169.57,-293.67 339.1,0 -169.53,293.67"
             style="fill:#100f0d;fill-opacity:1;fill-rule:nonzero;stroke:none"
             id="path48" /><path
             d="m 6629.22,1570.26 0.16,0.16 245.35,425.19 245.47,-425.19 0,-0.16 -490.98,0 z m -846.6,0.16 -281.6,487.89 393.78,681.99 550.59,0 399.96,-692.58 -275.58,-477.3 -787.15,0 z m -552.19,3.08 245.51,425.2 245.62,-425.2 -491.13,0 z m 938.95,1643.56 0.11,-0.16 0.31,-0.31 0,-0.12 245.2,-424.65 -491.09,0 245.47,425.24 z m 0.74,102.89 -0.32,-0.43 0,-0.16 L 5835.35,2740.3 5130,1518.89 l 2080.2,0 -1040.08,1801.06"
             style="fill:#100f0d;fill-opacity:1;fill-rule:nonzero;stroke:none"
             id="path50" /><path
             d="m 6010.74,2119.83 c 0.43,0.82 0.9,1.56 1.45,2.31 0.54,0.78 1.01,1.44 1.76,2.3 l 0.82,0.66 c 1.25,0.82 2.5,1.57 4.1,2.43 1.44,0.74 2.89,1.4 4.25,1.95 3.25,1.29 6.29,2.11 9.38,2.46 1.72,0.2 3.36,0.27 5.2,0.16 1.28,-0.12 3,-0.28 4.8,-0.63 3.05,-0.58 6.29,-1.76 9.38,-3.44 2.92,-1.52 5.66,-3.32 7.85,-4.76 l 17.97,-11.99 c 1.01,-0.67 1.95,-1.18 2.96,-1.72 3.99,-1.99 8.6,-3.36 13.68,-4.14 4.84,-0.71 10.04,-0.98 15.27,-0.78 1.33,0.04 2.66,0.07 4.02,0.15 l 0.63,0.08 c 0.23,0 0.47,0.04 0.7,0.04 7.19,0.66 7.62,2.07 7.62,2.07 0.08,0.55 -1.6,2.42 -6.13,4.53 l -0.28,0.12 c -2.73,0.9 -5.51,1.87 -8.24,2.97 -2.89,1.17 -6.02,2.5 -9.06,4.1 -3.09,1.6 -6.06,3.44 -8.83,5.43 -3.44,2.5 -6.09,4.88 -8.28,7.58 -2.74,3.28 -4.73,7.22 -5.51,11.05 -0.43,1.92 -0.63,3.95 -0.59,6.21 l 0.28,4.61 c 0.19,3.24 0.51,6.21 0.9,9.18 0.7,5.43 1.75,10.78 2.77,15.9 l 0.35,1.84 c 0.59,3 0.94,5.42 0.94,7.38 -0.04,1.01 -0.12,1.8 -0.31,2.38 -0.08,0.2 -0.12,0.39 -0.24,0.59 l -0.51,0 -0.19,1.17 -0.2,0.27 c -1.17,1.56 -2.73,2.93 -4.68,4.06 -1.02,0.55 -2.04,1.02 -3.09,1.41 -0.51,0.2 -1.09,0.35 -1.64,0.55 l -1.95,0.43 0,-0.04 -0.47,0.08 c -0.24,0.04 -0.43,0.04 -0.67,0.07 -0.62,0.04 -1.13,0.04 -1.6,0.04 -1.25,0 -2.34,-0.11 -3.44,-0.39 -2.03,-0.47 -3.9,-1.36 -5.39,-2.69 -1.56,-1.33 -2.81,-3.13 -3.79,-5.31 -0.46,-1.06 -0.85,-2.19 -1.21,-3.44 -0.23,-1.06 -0.43,-2.23 -0.47,-3.24 -0.07,-2.11 0.4,-3.99 1.45,-5.59 1.05,-1.6 2.73,-2.97 4.8,-3.87 1.92,-0.86 4.03,-1.29 6.1,-1.29 l 0.58,0 c 2.31,0.12 4.46,0.82 5.86,1.96 1.8,1.56 4.22,1.29 5.63,-0.32 0.74,-0.78 1.09,-1.83 1.05,-2.93 -0.04,-0.74 -0.31,-1.4 -0.74,-1.99 l 0.04,-0.04 -0.86,-0.86 c -2.73,-2.38 -6.21,-3.79 -10.39,-4.18 -3.59,-0.35 -7.23,0.12 -10.62,1.41 -3.75,1.45 -6.88,3.79 -9.07,6.72 -2.26,3.01 -3.59,7.07 -3.63,11.05 -0.04,1.8 0.12,3.56 0.51,5.51 0.39,1.76 0.9,3.44 1.44,4.96 1.37,3.64 3.44,6.88 5.98,9.34 2.66,2.58 6.17,4.61 9.88,5.66 1.76,0.51 3.64,0.82 5.51,1.02 0.94,0.04 1.84,0.08 2.77,0.08 l 0.47,-0.04 c 0.31,0 0.67,-0.04 1.02,-0.08 l 0.66,-0.08 c 0.31,-0.04 0.43,-0.04 0.59,-0.08 l 0.58,-0.04 c 0.32,-0.04 0.55,-0.07 0.82,-0.11 0.43,-0.08 0.86,-0.16 1.33,-0.28 0.9,-0.15 1.76,-0.39 2.62,-0.66 1.72,-0.55 3.4,-1.17 5,-1.99 3.48,-1.72 6.56,-4.14 8.91,-6.92 l 1.28,-1.76 c 0.16,-0.15 0.32,-0.42 0.47,-0.62 0.67,-1.09 1.18,-2.11 1.57,-3.12 0.74,-1.88 1.21,-3.99 1.32,-6.22 0.24,-3.63 -0.11,-6.64 -0.46,-9.57 l -0.36,-2.54 c -0.7,-5.19 -1.4,-10.11 -1.71,-15.03 -0.24,-2.9 -0.32,-5.67 -0.36,-8.32 l 0.04,-4.22 c 0,-0.78 0.12,-1.68 0.32,-2.58 0.43,-1.64 1.17,-3.09 2.34,-4.45 1.17,-1.37 2.89,-2.62 4.92,-3.64 1.84,-0.9 4.06,-1.64 6.84,-2.3 2.65,-0.67 5.11,-1.1 7.57,-1.33 0.24,-0.04 0.36,-0.04 0.47,-0.08 l 0.39,-0.04 c 0.82,-0.04 1.8,-0.08 2.78,-0.08 2.15,0 4.29,0.2 6.33,0.55 1.83,21.29 16.17,38.79 35.23,43.09 0.47,2.58 0.74,5.19 0.94,7.85 0.19,3.63 0.04,7.15 -0.59,10.19 -0.58,3.01 -1.72,5.47 -3.28,7.39 -0.35,0.43 -0.82,0.86 -1.29,1.25 l -0.98,0.74 -1.32,0.98 c -1.92,1.32 -3.79,2.57 -5.67,3.86 -0.82,0.55 -1.64,1.1 -2.46,1.64 -3.08,2.03 -6.33,4.14 -9.45,7.07 -2.5,2.35 -4.34,4.81 -5.59,7.54 -0.78,1.8 -1.21,3.56 -1.44,4.73 -0.2,0.78 -0.28,1.48 -0.39,2.11 -0.08,0.43 -0.16,0.82 -0.2,1.13 l -0.08,0.59 c -0.54,4.84 0,9.61 1.53,14.26 1.56,4.68 3.9,8.82 7.07,12.3 3.63,3.91 8.24,6.68 13,7.73 4.73,1.1 10.2,0.47 14.97,-1.64 1.05,-0.46 2.11,-0.97 3.08,-1.56 0.51,-0.27 1.02,-0.58 1.49,-0.9 l 1.25,-0.82 c 2.22,-1.52 3.94,-3.08 5.47,-4.92 1.79,-2.19 3.04,-4.69 3.67,-7.23 0.62,-2.65 0.58,-5.54 -0.08,-8.2 -1.29,-4.49 -3.99,-8.44 -8.05,-11.72 -1.76,-1.4 -3.75,-2.58 -5.82,-3.51 -2.46,-1.06 -4.69,-1.6 -6.87,-1.72 l -1.41,-0.08 0,0.31 c -1.37,0.51 -2.3,1.96 -2.3,3.63 0,1.41 0.66,2.66 1.71,3.36 l 0,0.2 1.06,0.27 c 2.54,0.55 5.27,2.15 7.46,4.42 2.23,2.22 3.67,4.8 3.98,7.07 0.36,2.18 -0.27,3.98 -1.95,5.66 -0.74,0.78 -1.91,1.64 -3.12,2.31 l -1.96,1.05 c -0.9,0.43 -1.52,0.74 -2.18,0.94 -5.08,1.87 -9.73,0.51 -13.21,-3.67 -3.36,-4.03 -5.04,-10 -4.33,-15.24 0.11,-0.47 0.23,-1.01 0.39,-1.52 0.08,-0.47 0.19,-0.86 0.27,-1.25 0.2,-0.7 0.39,-1.13 0.59,-1.49 0.47,-0.89 1.29,-1.83 2.5,-2.96 2.46,-2.31 5.78,-4.57 9.33,-6.33 1.88,-0.98 3.79,-1.8 5.67,-2.46 l 3.43,-1.33 c 1.37,-0.67 2.7,-1.49 4.14,-2.5 2.54,-1.8 4.81,-3.99 6.76,-6.56 1.64,-2.15 3.13,-4.54 4.57,-7.5 2.19,-4.46 3.71,-9.18 5.04,-15.39 1.06,-4.85 1.56,-9.58 1.92,-13.32 11.21,-5.47 19.8,-15.75 23.82,-28.36 1.33,-0.2 2.66,-0.32 4.03,-0.32 2.61,0 4.29,0.39 4.33,0.39 2.35,0.32 4.53,0.79 6.61,1.41 3.28,0.98 6.13,2.73 8,4.96 0.9,1.09 1.68,2.23 2.23,3.28 0.51,1.02 0.86,1.92 1.13,2.93 0.31,0.86 0.43,1.68 0.43,2.81 0.04,0.98 -0.12,1.92 -0.82,4.14 -0.86,3.01 -1.83,5.83 -2.85,8.79 l -1.05,3.01 c -1.25,3.83 -2.58,7.97 -3.56,12.42 -0.9,4.14 -1.72,9.11 -0.9,14.5 0.86,5.27 3.28,10.11 6.99,13.94 3.36,3.52 7.62,6.1 12.66,7.77 0.59,0.24 1.21,0.4 1.95,0.55 0.71,0.2 1.41,0.28 2.07,0.35 1.02,0.12 2.04,0.2 3.05,0.2 l 0.74,0 c 2.58,-0.04 5.12,-0.47 7.5,-1.25 4.73,-1.52 9.14,-4.81 12.15,-9.02 1.33,-1.84 2.46,-3.91 3.44,-6.29 l 0.7,-1.76 c 0.04,-0.16 0.16,-0.59 0.28,-0.94 0.03,-0.19 0.11,-0.43 0.15,-0.59 l 0.08,-0.35 c 0.31,-1.48 0.43,-2.89 0.43,-4.14 -0.04,-2.61 -0.7,-5.35 -1.95,-7.89 -1.18,-2.26 -2.78,-4.3 -4.73,-6.05 -3.71,-3.28 -8.28,-5.35 -13.28,-5.98 -2.66,-0.23 -5.2,-0.08 -7.58,0.55 -2.3,0.58 -4.53,1.72 -6.41,3.16 -1.68,0.82 -2.5,3.13 -1.56,5.12 0.9,1.95 3.36,2.85 5.28,1.95 0.15,-0.08 0.27,-0.15 0.39,-0.23 l 0.04,0 0.39,-0.28 c 2.22,-1.75 5.23,-2.5 8.35,-2.03 3.17,0.51 6.22,1.99 8.44,4.18 2.27,2.15 3.52,4.85 3.36,7.39 0,0.66 -0.12,1.32 -0.27,1.99 l -0.2,0.54 c -0.04,0.12 -0.04,0.2 -0.11,0.36 l -0.51,1.17 c -0.74,1.56 -1.6,2.97 -2.58,4.22 -1.99,2.46 -4.53,4.18 -7.3,4.92 -1.33,0.39 -2.66,0.55 -4.07,0.55 l -0.43,0 c -0.78,-0.04 -1.52,-0.12 -2.26,-0.24 -0.39,-0.08 -0.71,-0.16 -0.94,-0.19 l -1.02,-0.4 c -3,-1.13 -5.7,-3 -7.57,-5.23 -1.88,-2.15 -3.05,-4.92 -3.25,-7.66 -0.23,-2.5 0.24,-5.62 1.37,-9.61 1.13,-3.74 2.66,-7.53 3.95,-10.74 1.25,-2.97 2.93,-6.87 5.07,-10.62 l 0.43,-0.82 c 0.36,-0.63 0.75,-1.29 1.22,-2.27 0.62,-1.37 1.13,-2.73 1.52,-4.18 0.82,-2.89 1.01,-6.25 0.51,-9.41 -0.55,-3.05 -1.72,-6.02 -3.48,-8.67 -1.41,-2.11 -3.2,-4.14 -5.47,-6.18 -2.15,-1.91 -4.3,-3.59 -6.41,-5.27 -1.56,-1.21 -3.08,-2.42 -4.57,-3.67 -2.38,-1.95 -4.8,-3.87 -7.22,-5.78 l -6.49,-5.12 c -2.65,-1.99 -4.57,-3.48 -5.27,-4.41 -0.16,-0.2 -0.19,-0.28 -0.19,-0.28 0.07,0.08 0.7,-0.35 3.39,-1.13 2,-0.62 5,-0.7 8.87,-0.27 3.56,0.15 6.88,0.66 9.92,1.44 1.68,0.47 3.13,0.94 4.49,1.49 l 0.36,0.11 c 4.53,1.88 8.2,4.38 11.13,7.5 0.47,0.51 0.94,1.06 1.37,1.61 l 1.6,2.14 c 1.09,1.61 2.34,3.4 3.59,5.08 2.31,3.13 5.08,6.76 8.48,10.24 1.87,1.87 3.63,3.47 5.47,4.8 2.07,1.56 4.41,2.89 6.75,3.91 1.92,0.82 3.72,1.4 5.28,1.95 l 0.9,0.31 c 0.82,0.24 1.56,0.51 2.26,0.78 l 2.11,0.82 c 0.67,0.2 1.29,0.4 1.99,0.55 4.93,1.25 10.28,1.13 15.47,-0.35 1.41,-0.39 2.54,-0.74 3.64,-1.21 l 0.89,-0.39 c 0.36,-0.16 1.02,-0.47 1.25,-0.67 0.63,-0.35 1.14,-0.62 1.64,-0.93 2.11,-1.41 3.99,-2.97 5.75,-4.77 1.87,-1.95 3.43,-4.02 4.64,-6.25 1.29,-2.42 2.19,-5.12 2.54,-7.69 0.75,-4.81 -0.15,-10.16 -2.57,-15.08 -2.47,-5.12 -5.47,-8.87 -9.22,-11.49 -2.31,-1.6 -4.92,-2.69 -7.58,-3.16 -2.5,-0.51 -5.35,-0.43 -8.09,0.23 -4.72,1.21 -9.02,4.03 -12.42,8.09 -3.16,3.94 -5,8.52 -5.27,13.24 l 0,0.31 c 0.08,2.04 1.83,3.56 3.98,3.56 2.23,0 4.03,-1.6 4.03,-3.56 0.86,-5.54 6.17,-10.97 11.79,-11.91 2.7,-0.47 5.16,0.16 7.23,1.84 1.99,1.56 3.75,4.18 5.08,7.5 1.25,3.04 1.6,5.93 1.05,8.32 -0.55,2.42 -1.99,4.8 -4.22,6.83 -1.21,1.06 -2.42,1.96 -3.71,2.62 -0.39,0.23 -0.62,0.39 -0.86,0.51 l -0.66,0.19 c -0.7,0.28 -1.45,0.43 -2.19,0.63 -2.93,0.58 -5.9,0.51 -8.28,-0.28 l -1.8,-0.78 c -1.01,-0.5 -2.07,-0.97 -3.08,-1.4 l -1.02,-0.43 c -1.48,-0.63 -2.81,-1.21 -3.94,-1.8 -1.21,-0.66 -2.27,-1.41 -3.44,-2.46 -1.21,-1.02 -2.35,-2.31 -3.28,-3.44 -1.88,-2.26 -3.91,-5.19 -6.14,-8.87 -0.97,-1.6 -1.95,-3.2 -2.89,-4.92 l -1.87,-3.04 c -0.7,-1.06 -1.45,-2.07 -2.23,-3.05 -3.04,-3.87 -6.79,-7.38 -10.9,-10.12 l -2.11,-1.37 c -6.32,-4.68 -23.32,-11.32 -31.09,-14.25 1.84,-0.51 3.59,-1.06 5.31,-1.61 6.1,-1.99 12.66,-4.45 19.18,-8.78 2.54,-1.76 6.25,-4.54 9.14,-8.72 1.41,-2.07 2.46,-4.21 3.17,-6.4 0.74,-2.23 1.13,-4.65 1.21,-7.07 0,-0.59 -0.04,-1.17 -0.08,-1.72 l -0.35,-3.67 -1.84,-15.2 c -0.62,-5.19 -1.21,-10.15 -1.32,-14.88 -0.04,-2.97 0.11,-5.27 0.54,-7.07 0.28,-1.02 0.55,-1.84 0.9,-2.42 0.2,-0.35 0.35,-0.63 0.55,-0.9 l 1.01,-0.98 c 1.25,-1.13 2.82,-2.07 4.5,-2.73 l 8.39,-1.29 0,-0.12 0.08,-0.12 0,0.24 0,-0.27 0.12,-0.24 0.15,0.39 -0.03,0.12 0.89,0.12 c 0.63,0.07 1.22,0.19 1.76,0.31 1.1,0.27 2.19,0.66 3.17,1.13 2.11,0.98 3.82,2.38 5,4.06 1.29,1.76 2.14,3.95 2.57,6.29 0.2,1.18 0.36,2.35 0.4,3.79 0.03,1.21 -0.08,2.42 -0.28,3.4 -0.47,2.23 -1.48,4.1 -2.97,5.47 -1.56,1.41 -3.63,2.38 -5.86,2.73 -2.38,0.39 -4.76,0.2 -6.99,-0.5 -2.26,-0.71 -4.18,-1.96 -5.19,-3.4 -0.63,-1.14 -1.92,-1.92 -3.36,-1.92 -2.15,0 -3.95,1.84 -3.95,4.07 0,1.17 0.51,2.3 1.33,3.04 2.07,2.54 5.08,4.5 8.87,5.67 3.43,1.01 7.03,1.29 10.47,0.74 3.9,-0.59 7.34,-2.15 10,-4.41 2.77,-2.39 4.8,-5.83 5.7,-9.65 0.43,-1.68 0.66,-3.36 0.7,-5.32 0.04,-1.64 -0.04,-3.36 -0.27,-5.03 -0.51,-3.79 -1.68,-7.15 -3.6,-10.08 -1.99,-3.13 -4.84,-5.82 -8,-7.58 -1.64,-0.94 -3.28,-1.64 -5,-2.19 -0.86,-0.27 -1.68,-0.51 -2.58,-0.7 l -0.51,-0.12 c -0.27,-0.04 -0.59,-0.12 -0.94,-0.16 -0.47,-0.07 -0.78,-0.11 -1.17,-0.11 -0.55,-0.12 -0.94,-0.16 -1.44,-0.2 -0.43,0 -0.9,-0.04 -1.33,-0.04 -0.78,0 -1.72,-0.04 -2.62,0.04 -1.68,0.08 -3.44,0.31 -5.27,0.74 -3.71,0.82 -7.23,2.35 -10.16,4.46 l -2.15,1.79 c -0.97,0.98 -1.68,1.8 -2.3,2.66 -1.13,1.52 -2.03,3.32 -2.81,5.51 -1.25,3.67 -1.68,7.11 -1.96,10.27 -0.47,5.82 -0.43,11.33 -0.43,16.64 l -0.11,16.99 c 0,0.12 0,0.4 0,0.55 l -0.08,0.39 c -0.32,1.37 -0.78,2.15 -1.64,2.97 -1.1,1.02 -2.58,1.91 -4.26,2.58 -1.92,0.82 -4.18,1.44 -6.72,1.87 -48.55,-1.87 -62.5,-25.11 -63.95,-27.77 -0.7,-1.76 -1.25,-3.83 -1.67,-6.01 -0.28,-1.96 -0.36,-3.56 -0.24,-4.73 0.2,-1.29 0.43,-2.03 0.94,-2.66 0.31,-0.43 0.7,-0.78 1.17,-1.05 l 3.67,-1.84 c 5.98,-3.05 11.21,-5.94 16.02,-8.9 2.81,-1.72 5.39,-3.48 7.89,-5.36 2.97,-2.26 5.43,-4.49 7.54,-6.83 2.65,-2.97 4.65,-6.17 5.93,-9.46 0.36,-0.89 0.67,-1.83 0.9,-2.73 0.16,-0.7 0.28,-1.21 0.35,-1.76 0.12,-0.43 0.16,-0.97 0.24,-1.48 0.16,-1.88 0.12,-3.79 -0.2,-5.82 -0.47,-3.21 -1.4,-6.33 -2.89,-9.85 -0.66,-1.52 -1.36,-2.93 -2.11,-4.37 -0.82,-1.45 -1.6,-2.7 -2.57,-4.22 l -0.47,-0.62 c -0.32,-0.32 -0.43,-0.43 -0.63,-0.59 l -0.51,-0.51 c -0.23,-0.19 -0.46,-0.39 -0.7,-0.55 l -0.31,-0.27 c -0.7,-0.55 -1.45,-1.05 -2.15,-1.52 -1.6,-0.98 -3.13,-1.72 -4.61,-2.31 -2.93,-1.13 -6.17,-1.75 -9.34,-1.75 l -0.54,0 c -3.17,0.11 -6.37,0.78 -9.53,1.95 l -2.19,0.86 c -0.82,0.35 -1.52,0.78 -2.23,1.17 -1.56,0.9 -2.97,1.91 -4.18,3.05 -2.69,2.5 -4.57,6.01 -5.11,9.68 -0.51,3.29 -0.08,6.88 1.28,10.36 1.25,3.12 3.13,5.89 5.55,8.35 2.42,2.43 5.2,4.18 8.17,5.16 0.11,0.04 0.31,0.12 0.5,0.2 l 0.51,0.11 c 0.31,0.04 0.55,0.04 0.74,0.04 2.03,0 3.83,-1.36 4.34,-3.4 0.59,-2.3 -0.7,-4.68 -2.97,-5.39 -1.6,-0.74 -3.05,-1.91 -4.84,-3.47 -1.45,-1.33 -2.74,-3.13 -3.6,-5.04 -0.86,-1.95 -1.17,-3.87 -0.9,-5.55 0.28,-1.72 1.1,-3.2 2.47,-4.45 0.82,-0.71 1.64,-1.29 2.42,-1.68 0.54,-0.31 1.01,-0.51 1.44,-0.7 l 1.64,-0.59 c 2.11,-0.7 4.3,-1.06 6.41,-0.94 2.11,0.08 4.1,0.59 5.94,1.49 0.86,0.43 1.72,0.97 2.61,1.64 0.39,0.31 0.79,0.62 1.14,0.97 0.15,0.12 0.27,0.24 0.39,0.39 2.69,4.85 4.33,9.85 4.57,13.64 0.04,0.74 0.04,1.91 -0.16,2.81 l -0.15,0.62 c -0.04,0.12 -0.08,0.24 -0.12,0.32 -0.2,0.54 -0.39,0.97 -0.63,1.36 -0.86,1.61 -2.15,3.13 -3.98,4.65 -3.09,2.62 -7.27,4.96 -13.13,7.35 -5.35,2.22 -10.89,3.94 -15.62,5.39 l -4.3,1.21 c -2.46,0.86 -4.53,1.83 -6.4,3.04 -3.83,2.5 -7.35,6.45 -9.65,10.86 -1.92,3.72 -3.28,7.78 -4.07,12.11 -0.78,3.91 -1.05,7.7 -1.24,11.18 -0.2,4.68 -0.12,9.49 0.23,15.46 -1.17,0 -2.19,0.04 -3.2,0.04 -4.18,0 -8.05,-0.23 -11.57,-0.62 -4.92,-0.55 -9.33,-1.68 -12.18,-3.05 -1.53,-0.7 -2.35,-1.4 -2.78,-1.83 -0.43,-0.4 -0.78,-0.9 -0.78,-2.39 0,-0.35 0.04,-0.82 0.04,-1.25 l 0.24,-2.85 2.85,-21.13 c 0.39,-2.7 0.82,-5.82 1.01,-8.99 0.2,-2.93 0.43,-6.25 0,-9.84 -0.19,-2.03 -0.58,-3.87 -1.17,-5.51 -0.39,-1.05 -0.78,-1.95 -1.21,-2.77 -0.43,-0.78 -0.94,-1.6 -1.45,-2.38 -1.95,-2.82 -4.57,-5.39 -7.65,-7.39 -1.49,-0.97 -3.01,-1.79 -4.57,-2.46 -0.74,-0.31 -1.57,-0.62 -2.39,-0.9 -0.27,-0.07 -0.58,-0.19 -0.89,-0.31 l -1.61,-0.43 c -0.27,-0.08 -0.54,-0.12 -0.78,-0.19 l -1.75,-0.32 c -0.94,-0.15 -1.84,-0.23 -2.74,-0.31 -1.91,-0.08 -3.75,0 -5.43,0.27 -3.75,0.59 -7.26,2.04 -10.19,4.26 -2.78,2.07 -5.16,4.92 -6.92,8.17 -0.78,1.52 -1.48,3.08 -2.03,4.65 -0.58,1.79 -0.98,3.43 -1.21,5.23 -0.51,3.87 0.23,7.81 2.03,11.05 1.72,3.13 4.42,5.79 7.81,7.7 3.09,1.72 6.61,2.73 10.16,2.89 3.67,0.16 7.23,-0.55 10.08,-2.15 1.37,-0.43 2.5,-1.95 2.5,-3.63 0,-2.23 -1.8,-4.02 -4.03,-4.02 -0.7,0 -1.32,0.15 -1.95,0.5 l -0.31,0.2 c -1.49,0.9 -3.63,1.37 -5.82,1.21 -2.42,-0.16 -4.73,-0.82 -6.68,-1.99 -2.11,-1.17 -3.67,-2.74 -4.53,-4.53 -0.94,-1.84 -1.25,-3.87 -0.9,-6.14 0.12,-0.93 0.43,-2.03 0.9,-3.32 0.51,-1.25 1.05,-2.3 1.68,-3.36 1.25,-2.18 2.81,-3.86 4.57,-5.04 1.76,-1.17 3.83,-1.87 6.09,-2.1 1.13,-0.12 2.31,-0.12 3.44,0 0.59,0.03 1.13,0.15 1.72,0.27 l 1.29,0.35 0.04,-0.04 1.87,0.7 c 0.55,0.24 1.06,0.51 1.56,0.75 1.1,0.58 2.07,1.17 2.89,1.83 1.8,1.33 3.29,2.97 4.3,4.69 0.27,0.43 0.47,0.86 0.66,1.33 0.16,0.35 0.28,0.74 0.4,1.17 0.19,0.86 0.31,1.8 0.35,2.89 0,2.11 -0.32,4.61 -0.9,7.19 -1.13,5.15 -2.77,10.39 -4.53,15.9 l -3.99,13.28 c -0.11,0.47 -0.23,0.93 -0.39,1.4 l -0.23,0.55 c -0.2,0.51 -0.39,1.02 -0.55,1.52 -0.62,2.11 -0.98,4.54 -0.98,6.84 0.04,2.5 0.47,5.12 1.33,7.5 1.49,4.14 4.14,8.05 8.01,11.48 3.44,3.05 6.91,5.08 9.57,6.53 3.4,1.76 6.68,3.08 9.45,4.18 1.53,0.54 3.13,1.09 4.81,1.64 -4.57,0.58 -8.87,1.33 -13.09,2.22 -7.07,1.49 -12.85,3.17 -18.2,5.2 -7.23,2.81 -12.77,5.86 -17.38,9.49 -1.57,1.25 -2.85,2.38 -3.87,3.44 l -3.01,3.09 c -1.95,2.03 -3.94,4.02 -5.97,5.97 -3.83,3.75 -7.97,7.62 -12.31,10.43 -2.15,1.41 -4.14,2.35 -6.33,2.89 -1.05,0.32 -2.22,0.59 -3.59,0.74 -0.94,0.12 -2.11,0.16 -3.24,0.04 -2.27,-0.15 -4.65,-0.7 -7.15,-1.64 -1.21,-0.39 -2.38,-0.9 -3.56,-1.4 -0.97,-0.47 -1.99,-1.02 -2.89,-1.53 -0.23,-0.27 -0.5,-0.62 -0.74,-0.89 -0.39,-0.55 -0.74,-1.1 -1.05,-1.65 -0.75,-1.13 -1.29,-2.3 -1.76,-3.47 -0.98,-2.46 -1.45,-4.96 -1.33,-7.42 0.12,-2.39 0.74,-4.85 1.95,-7.39 0.55,-1.09 1.21,-2.22 2.07,-3.47 0.75,-1.02 1.6,-1.92 2.43,-2.58 3.47,-2.81 8.32,-2.89 13.04,-0.12 2.27,1.37 4.26,3.13 5.74,5.16 1.53,1.99 2.43,4.29 2.43,6.13 0.04,2.54 1.79,4.41 3.98,4.41 2.19,0 3.95,-1.95 3.95,-4.33 0,-0.27 0,-0.47 -0.04,-0.67 -0.24,-4.41 -2.46,-7.93 -4.1,-10.19 -2.23,-2.89 -4.97,-5.31 -8.09,-7.07 -3.48,-1.99 -7.07,-3.05 -10.66,-3.13 l -0.04,0 c -4.11,0 -8.05,1.37 -11.06,3.83 -1.48,1.17 -2.73,2.5 -3.9,4.06 -1.1,1.53 -2,3.01 -2.78,4.46 -1.72,3.36 -2.73,6.95 -2.97,10.43 -0.23,3.59 0.28,7.34 1.53,10.82 0.54,1.52 1.29,3.12 2.26,4.84 z m 159.38,-210.23 c 110.15,0 199.8,89.61 199.8,199.8 0,110.16 -89.65,199.81 -199.8,199.81 -110.2,0 -199.85,-89.65 -199.85,-199.81 0,-110.19 89.65,-199.8 199.85,-199.8"
             style="fill:#100f0d;fill-opacity:1;fill-rule:nonzero;stroke:none"
             id="path52" /><path
             d="m 5350.55,1638.54 124.33,215.39 124.38,-215.39 -248.71,0 z m -45.24,-26.05 339.1,0 -169.53,293.59 -169.57,-293.59"
             style="fill:#100f0d;fill-opacity:1;fill-rule:nonzero;stroke:none"
             id="path54" /><path
             d="m 6558.32,2080.61 c -14.18,0 -25.62,11.49 -25.62,25.55 0,14.18 11.44,25.55 25.62,25.55 14.02,0 25.55,-11.37 25.55,-25.55 0,-14.06 -11.53,-25.55 -25.55,-25.55 z m -388.2,-274.57 c -169.5,0 -307.39,137.89 -307.39,307.38 0,169.5 137.89,307.39 307.39,307.39 169.49,0 307.38,-137.89 307.38,-307.39 0,-169.49 -137.89,-307.38 -307.38,-307.38 z m 292.5,7.54 c -10,-9.96 -26.1,-9.96 -36.1,0 -9.96,10.08 -9.96,26.17 0,36.1 10,9.96 26.1,9.96 36.1,0 10.04,-9.93 10.04,-26.02 0,-36.1 z m -292.58,-121.25 c -14.1,0 -25.55,11.56 -25.55,25.63 0,14.18 11.45,25.5 25.55,25.5 14.14,0 25.62,-11.32 25.62,-25.5 0,-14.07 -11.48,-25.63 -25.62,-25.63 z m -256.37,121.25 c -9.96,-9.96 -26.17,-9.96 -36.13,0 -9.96,10.08 -9.96,26.17 0,36.1 9.96,9.96 26.17,9.96 36.13,0 10.08,-9.93 10.08,-26.02 0,-36.1 z m -36.13,585.08 c 9.96,10 26.17,10 36.13,0 10.08,-9.96 10.08,-26.09 0,-36.17 -9.96,-9.96 -26.17,-9.96 -36.13,0 -9.96,10.08 -9.96,26.21 0,36.17 z m 292.5,121.09 c 14.14,0 25.62,-11.44 25.62,-25.54 0,-14.18 -11.48,-25.55 -25.62,-25.55 -14.1,0 -25.55,11.37 -25.55,25.55 0,14.1 11.45,25.54 25.55,25.54 z m 256.48,-121.09 c 10,10 26.21,10 36.1,0 10.04,-9.96 10.04,-26.09 0,-36.21 -10,-9.92 -26.1,-9.92 -36.1,0 -9.96,9.92 -9.96,26.25 0,36.21 z m -644.53,-318.05 c -14.18,0 -25.54,11.49 -25.54,25.55 0,14.18 11.36,25.55 25.54,25.55 14.06,0 25.51,-11.37 25.51,-25.55 0,-14.06 -11.45,-25.55 -25.51,-25.55 z m 876.21,-21.29 c -20,7.54 -39.02,25 -40.19,44.85 l 0,3.86 c 1.17,19.77 20.19,37.27 40.19,45 20.78,7.43 22.54,16.41 21.68,22.82 -0.62,6.36 -5,14.49 -27.07,16.17 -20.66,1.95 -43.08,13.16 -50.19,31.09 -0.67,2.23 -1.33,4.42 -1.88,6.68 -3.04,18.79 10.24,40.12 26.96,52.46 17.69,12.89 17.5,22.07 14.72,27.93 -2.65,5.94 -8.87,12.62 -30.39,8.32 -21.09,-3.94 -46.33,1.1 -57.62,17.23 -0.7,1.17 -1.44,2.38 -2.22,3.63 -9.18,17.39 -2.11,42.19 11.05,59.1 13.71,17.19 10.67,25.82 6.64,30.94 -3.98,4.92 -12.07,9.53 -31.68,-0.35 -18.67,-9.14 -43.71,-11.09 -59.14,0.43 -1.52,1.52 -3.2,2.93 -4.76,4.34 -12.7,14.6 -12.35,39.8 -4.46,59.25 8.64,20.32 3.32,27.66 -1.87,31.45 -5.27,3.79 -14.02,6.25 -30.39,-8.71 -15.55,-13.95 -39.22,-22.58 -57.19,-15.47 -1.95,1.05 -3.94,2.03 -5.86,3.01 -15.94,10.74 -22.38,34.92 -20.08,55.5 2.7,21.84 -4.14,28.01 -10.31,29.93 -6.17,2.11 -15.27,2.11 -26.84,-16.57 -11.52,-18.12 -32.53,-33.12 -52.14,-30.19 -1.29,0.39 -2.74,0.55 -4.11,0.86 -18.94,5.27 -32.14,27.26 -35.58,48.36 -3.2,21.79 -11.68,25.19 -18.13,25.78 -6.44,0.74 -15.23,-2.03 -21.4,-23.2 -6.14,-19.89 -21.53,-39.54 -40.55,-42.93 -2.38,-0.28 -4.69,-0.28 -7.11,-0.59 -19.06,0.98 -36.99,18.28 -45.66,37.27 -8.99,19.92 -18.17,21.44 -24.42,20.11 -6.29,-1.36 -14.06,-6.25 -14.33,-28.2 -0.51,-21.02 -10.47,-44.49 -28.09,-52.54 -1.8,-0.62 -3.67,-1.29 -5.55,-1.95 -18.67,-4.69 -41.01,7.19 -54.64,23.16 -14.18,17.07 -23.09,15.59 -28.83,12.77 -5.86,-2.85 -11.96,-9.64 -6.21,-31.09 5.15,-20.08 2.11,-45.04 -12.35,-57.69 -1.87,-1.41 -3.67,-2.66 -5.47,-4.07 -16.91,-9.22 -41.28,-3.79 -58.59,7.78 -18.12,12.42 -26.68,9.06 -31.33,4.61 -4.49,-4.61 -8.9,-12.43 2.35,-31.49 10.62,-18.16 14.33,-43.32 3.55,-59.37 -1.25,-1.33 -2.42,-2.85 -3.55,-4.26 -13.52,-14.18 -38.99,-15.66 -59.07,-8.99 -20.74,7.15 -27.93,1.41 -31.36,-3.98 -3.25,-5.59 -5.04,-14.77 10.82,-29.73 15,-14.76 25.31,-37.89 19.22,-56.25 -0.75,-1.87 -1.57,-3.71 -2.39,-5.5 -9.33,-16.92 -33.32,-25.04 -54.18,-24.14 -22.15,1.21 -27.22,-6.18 -29.02,-12.54 -1.88,-6.18 -1.17,-15.16 18.36,-25.63 18.32,-9.92 34.45,-29.22 33.94,-48.51 -0.31,-2.31 -0.7,-4.54 -0.97,-6.65 -4.77,-18.71 -25.35,-32.89 -45.63,-37.57 -21.33,-4.69 -24.57,-13.25 -24.72,-19.69 0.15,-6.48 3.39,-15.08 24.72,-19.84 20.28,-4.61 40.86,-18.95 45.63,-37.47 0.27,-2.22 0.66,-4.53 0.97,-6.67 0.51,-19.26 -15.62,-38.64 -33.94,-48.6 -19.53,-10.35 -20.24,-19.49 -18.36,-25.74 1.8,-6.25 6.87,-13.71 29.02,-12.42 20.86,1.01 44.85,-7.15 54.18,-24.22 0.82,-1.72 1.64,-3.56 2.39,-5.24 6.09,-18.55 -4.22,-41.6 -19.22,-56.4 -15.86,-15.12 -14.07,-24.18 -10.82,-29.73 3.43,-5.39 10.62,-11.09 31.36,-3.98 20.08,6.56 45.55,5.15 59.07,-8.91 1.13,-1.48 2.3,-2.97 3.55,-4.45 10.78,-16.17 7.07,-41.1 -3.55,-59.22 -11.25,-19.02 -6.84,-27.11 -2.35,-31.49 4.65,-4.6 13.21,-7.96 31.33,4.5 17.31,11.6 41.68,17.03 58.59,7.69 1.8,-1.29 3.6,-2.62 5.47,-3.87 14.46,-12.73 17.5,-37.69 12.35,-57.81 -5.75,-21.33 0.35,-28.16 6.21,-31.05 5.74,-2.82 14.65,-4.38 28.83,12.77 13.63,16.02 35.97,27.81 54.64,23.13 1.88,-0.67 3.75,-1.29 5.55,-1.88 17.62,-8.08 27.58,-31.52 28.09,-52.62 0.27,-21.95 8.04,-26.72 14.33,-28.08 6.25,-1.41 15.43,0.08 24.42,20 8.55,19.02 26.6,36.25 45.66,37.22 2.42,-0.15 4.73,-0.35 7.11,-0.43 19.02,-3.35 34.41,-23.12 40.55,-43 6.17,-21.17 14.96,-23.75 21.4,-23.21 6.45,0.47 14.93,3.91 18.13,25.78 3.44,21.1 16.64,43.17 35.58,48.36 1.37,0.32 2.82,0.67 4.11,0.9 19.61,2.78 40.62,-12.18 52.14,-30.31 11.57,-18.52 20.67,-18.52 26.84,-16.56 6.17,1.95 13.01,8.16 10.31,29.92 -2.3,20.66 4.14,44.88 20.08,55.59 1.92,0.97 3.91,2.07 5.86,3 17.97,7.11 41.64,-1.6 57.19,-15.5 16.37,-14.85 25.12,-12.47 30.39,-8.75 5.19,3.78 10.51,11.13 1.87,31.64 -7.89,19.33 -8.24,44.53 4.46,59.1 1.56,1.4 3.24,2.93 4.76,4.41 15.43,11.6 40.47,9.53 59.14,0.31 19.61,-9.76 27.7,-5.35 31.68,-0.23 4.03,5.08 6.88,13.71 -6.64,30.78 -13.16,16.99 -20.23,41.88 -11.05,59.3 0.78,1.09 1.52,2.34 2.22,3.47 11.29,16.25 36.53,21.25 57.62,17.31 21.52,-4.18 27.74,2.54 30.39,8.28 2.78,5.86 2.97,15.12 -14.72,27.93 -16.72,12.38 -30,33.63 -26.96,52.66 0.55,2.07 1.21,4.29 1.88,6.6 7.11,17.77 29.53,28.98 50.19,30.97 22.07,1.72 26.45,9.81 27.07,16.29 0.86,6.33 -0.9,15.24 -21.68,22.93"
             style="fill:#100f0d;fill-opacity:1;fill-rule:nonzero;stroke:none"
             id="path56" /><path
             d="m 6750.51,1638.54 124.37,215.39 124.34,-215.39 -248.71,0 z m -45.2,-26.05 339.1,0 -169.53,293.59 -169.57,-293.59"
             style="fill:#100f0d;fill-opacity:1;fill-rule:nonzero;stroke:none"
             id="path58" /><path
             d="m 6389.22,2286 0.82,-1.05 -36.99,-29.18 -0.86,1.05 c -1.64,2.07 -3.36,4.18 -5.12,6.25 l -0.86,1.02 35.98,30.47 0.86,-1.02 c 2.11,-2.5 4.18,-5 6.17,-7.54 z m 16.83,-23.86 c 1.72,-2.7 3.4,-5.47 5,-8.25 l 0.67,-1.17 -40.63,-23.79 -0.7,1.14 c -1.37,2.34 -2.73,4.64 -4.22,6.95 l -0.7,1.13 39.88,25.16 0.7,-1.17 z m 18.44,-34.26 c 1.33,-3.09 2.62,-5.98 3.79,-8.95 l 0.47,-1.21 -43.63,-17.77 -0.51,1.25 c -0.98,2.5 -2.03,4.92 -3.13,7.34 l -0.58,1.25 43.05,19.34 0.54,-1.25 z m 13.4,-36.45 c 0.9,-3.12 1.76,-6.25 2.54,-9.37 l 0.31,-1.29 -45.66,-11.56 -0.35,1.29 c -0.67,2.61 -1.37,5.23 -2.11,7.81 l -0.35,1.29 45.23,13.08 0.39,-1.25 z m 8.2,-38.04 c 0.43,-3.21 0.82,-6.41 1.21,-9.61 l 0.16,-1.37 -46.87,-5.12 -0.16,1.37 c -0.27,2.69 -0.63,5.35 -1.02,8.05 l -0.19,1.32 46.68,6.68 0.19,-1.32 z m 2.82,-39.89 c 0,-3.24 -0.04,-6.48 -0.16,-9.68 l -0.08,-1.33 -47.11,1.64 0.08,1.33 c 0.08,2.69 0.16,5.35 0.16,8.04 l 0,1.33 47.11,1.09 0,-2.42 z m -2.66,-38.75 c -0.47,-3.24 -0.94,-6.44 -1.52,-9.61 l -0.24,-1.29 -46.4,8.05 0.62,3.91 c 0.31,1.79 0.63,3.63 0.86,5.47 l 0.2,1.29 46.68,-6.49 -0.2,-1.33 z m -8.05,-38.04 c -0.9,-3.13 -1.83,-6.21 -2.85,-9.34 l -0.39,-1.29 -44.84,14.57 0.39,1.25 c 0.82,2.58 1.64,5.16 2.38,7.74 l 0.35,1.28 45.31,-12.92 -0.35,-1.29 z m -13.32,-36.61 c -1.33,-2.96 -2.69,-5.89 -4.14,-8.82 l -0.58,-1.21 -42.31,20.7 0.59,1.17 c 1.17,2.46 2.3,4.92 3.44,7.38 l 0.54,1.21 43.05,-19.18 -0.59,-1.25 z m -18.32,-34.37 c -1.72,-2.73 -3.47,-5.47 -5.27,-8.13 l -0.74,-1.13 -39.07,26.37 0.75,1.09 c 1.52,2.27 2.97,4.53 4.41,6.84 l 0.7,1.13 39.96,-25.04 -0.74,-1.13 z m -22.85,-31.45 c -2.07,-2.46 -4.22,-4.92 -6.37,-7.34 l -0.89,-0.98 -35.04,31.53 0.89,1.01 c 1.84,2 3.6,4.03 5.32,6.1 l 0.86,1.01 36.13,-30.27 -0.9,-1.06 z m -26.99,-27.96 c -2.34,-2.15 -4.81,-4.26 -7.27,-6.33 l -1.01,-0.86 -30.47,35.97 1.01,0.86 c 2.11,1.76 4.18,3.56 6.22,5.39 l 0.97,0.86 31.53,-35 -0.98,-0.89 z m -30.59,-23.95 c -2.65,-1.84 -5.39,-3.59 -8.12,-5.31 l -1.13,-0.71 -25.08,39.89 1.13,0.74 c 2.3,1.44 4.53,2.89 6.8,4.41 l 1.09,0.75 26.41,-39.03 -1.1,-0.74 z m -33.63,-19.49 c -2.89,-1.45 -5.86,-2.81 -8.79,-4.14 l -1.25,-0.55 -19.22,43.01 1.21,0.55 c 2.5,1.17 4.93,2.26 7.31,3.43 l 1.21,0.63 20.74,-42.35 -1.21,-0.58 z m -36.05,-14.61 c -3.05,-1.02 -6.18,-1.95 -9.3,-2.85 l -1.25,-0.35 -13.09,45.23 1.25,0.39 c 2.62,0.74 5.2,1.52 7.78,2.38 l 1.28,0.43 14.61,-44.8 -1.28,-0.43 z m -37.78,-9.42 c -3.12,-0.58 -6.33,-1.09 -9.57,-1.52 l -1.29,-0.19 -6.64,46.64 1.33,0.19 c 2.66,0.39 5.35,0.82 8.01,1.29 l 1.33,0.24 8.16,-46.41 -1.33,-0.24 z m -38.63,-4.1 c -3.2,-0.11 -6.45,-0.11 -9.69,-0.15 l -1.33,0 -0.11,47.11 1.32,0 c 2.74,0 5.43,0.07 8.13,0.15 l 1.33,0.04 0.08,-1.33 1.6,-45.78 -1.33,-0.04 z m -37.46,1.21 -1.33,0.12 c -3.28,0.31 -6.52,0.7 -9.73,1.17 l -1.32,0.2 6.52,46.64 1.33,-0.16 c 2.65,-0.39 5.31,-0.7 7.97,-0.97 l 1.32,-0.12 -4.76,-46.88 z m -38.4,6.49 -1.29,0.27 c -3.12,0.78 -6.29,1.64 -9.37,2.5 l -1.29,0.39 12.85,45.31 1.29,-0.35 c 2.58,-0.74 5.19,-1.44 7.81,-2.11 l 1.29,-0.31 -11.29,-45.7 z m -37.11,11.76 -1.25,0.5 c -3.01,1.21 -5.98,2.5 -8.94,3.79 l -1.22,0.55 19.14,43.09 1.22,-0.55 c 2.46,-1.09 4.96,-2.19 7.46,-3.17 l 1.25,-0.5 -17.66,-43.71 z m -35.04,16.87 -1.17,0.67 c -2.85,1.64 -5.66,3.32 -8.44,5.07 l -1.13,0.71 25.12,39.92 1.13,-0.74 c 2.23,-1.41 4.53,-2.78 6.84,-4.11 l 1.17,-0.66 -23.52,-40.86 z m -33.44,22.42 c -2.57,2 -5.07,4.03 -7.57,6.1 l -1.02,0.86 30.23,36.17 1.02,-0.86 c 2.11,-1.76 4.22,-3.44 6.33,-5.12 l 1.05,-0.82 -28.98,-37.15 -1.06,0.82 z m -28.94,25.98 c -2.23,2.34 -4.45,4.69 -6.64,7.11 l -0.9,0.98 35,31.6 0.9,-0.98 c 1.79,-2.03 3.63,-3.98 5.51,-5.9 l 0.93,-0.97 -33.86,-32.82 -0.94,0.98 z m -24.22,28.63 -0.78,1.1 c -1.92,2.61 -3.79,5.27 -5.63,7.97 l -0.78,1.09 39.06,26.41 0.75,-1.1 c 1.52,-2.23 3.04,-4.41 4.65,-6.56 l 0.78,-1.1 -38.05,-27.81 z m -21.48,34.03 c -1.53,2.85 -3.01,5.74 -4.46,8.63 l -0.54,1.17 42.22,20.78 0.63,-1.17 c 1.21,-2.42 2.42,-4.8 3.71,-7.19 l 0.62,-1.17 -41.56,-22.27 -0.62,1.22 z m -15.9,35.46 c -1.14,3.05 -2.19,6.1 -3.21,9.18 l -0.39,1.29 44.77,14.69 0.43,-1.29 c 0.82,-2.58 1.72,-5.12 2.65,-7.65 l 0.43,-1.25 -44.21,-16.22 -0.47,1.25 z m -10.78,37.43 c -0.67,3.12 -1.29,6.32 -1.88,9.49 l -0.23,1.33 46.4,8.28 0.24,-1.33 c 0.47,-2.7 0.97,-5.31 1.56,-7.97 l 0.27,-1.33 -46.09,-9.8 -0.27,1.33 z m -5.47,38.43 c -0.2,3.25 -0.39,6.49 -0.51,9.73 l -0.04,1.33 47.07,1.76 0.04,-1.33 c 0.12,-2.74 0.27,-5.39 0.47,-8.09 l 0.08,-1.33 -47,-3.39 -0.11,1.32 z m -0.08,38.87 c 0.23,3.24 0.51,6.49 0.82,9.73 l 0.12,1.33 46.91,-4.81 -0.12,-1.33 c -0.27,-2.65 -0.5,-5.35 -0.7,-8.04 l -0.08,-1.33 -47.03,3.12 0.08,1.33 z m 5.31,38.56 c 0.67,3.16 1.37,6.29 2.15,9.45 l 0.31,1.29 45.78,-11.21 -0.31,-1.29 c -0.66,-2.62 -1.25,-5.28 -1.84,-7.93 l -0.27,-1.29 -46.09,9.65 0.27,1.33 z m 10.63,37.42 c 1.05,3.08 2.22,6.13 3.47,9.14 l 0.47,1.21 43.75,-17.54 -0.51,-1.21 c -1.01,-2.54 -1.95,-5.08 -2.89,-7.62 l -0.43,-1.25 -44.33,16.02 0.47,1.25 z m 15.78,35.62 c 1.48,2.85 3.04,5.67 4.65,8.48 l 0.66,1.13 40.9,-23.4 -0.67,-1.17 c -1.32,-2.34 -2.65,-4.72 -3.94,-7.15 l -0.63,-1.17 -41.6,22.07 0.63,1.21 z m 20.51,33.01 c 1.95,2.66 3.9,5.24 5.89,7.81 l 0.82,1.06 37.15,-28.99 -0.82,-1.05 c -1.64,-2.15 -3.24,-4.26 -4.8,-6.45 l -0.78,-1.09 -38.25,27.62 0.79,1.09 z m 25,29.84 c 2.22,2.35 4.49,4.61 6.83,6.88 l 0.98,0.94 32.85,-33.79 -0.98,-0.94 c -1.95,-1.87 -3.86,-3.83 -5.74,-5.74 l -0.9,-0.98 -33.98,32.66 0.94,0.97 z m 28.78,26.1 c 2.54,1.99 5.12,3.9 7.7,5.82 l 1.09,0.82 27.89,-37.97 -1.05,-0.82 c -2.19,-1.6 -4.38,-3.24 -6.48,-4.92 l -1.06,-0.82 -29.14,37.07 1.05,0.82 z m 32.15,21.8 c 2.82,1.64 5.67,3.24 8.56,4.76 l 1.17,0.66 22.19,-41.6 -1.18,-0.62 c -2.38,-1.25 -4.68,-2.54 -6.99,-3.91 l -1.17,-0.66 -23.75,40.7 1.17,0.67 z m 34.92,17.18 c 2.97,1.21 5.98,2.39 9.07,3.52 l 1.25,0.47 16.29,-44.22 -1.29,-0.47 c -2.54,-0.94 -5.04,-1.91 -7.54,-2.93 l -1.25,-0.51 -17.78,43.63 1.25,0.51 z m 36.96,12.15 c 3.12,0.78 6.29,1.52 9.45,2.19 l 1.33,0.27 9.92,-46.05 -1.33,-0.28 c -2.65,-0.58 -5.27,-1.21 -7.89,-1.83 l -1.29,-0.35 -11.48,45.7 1.29,0.35 z m 38.28,6.8 c 3.2,0.35 6.44,0.62 9.73,0.86 l 1.32,0.11 3.36,-47.03 -1.33,-0.07 c -2.69,-0.2 -5.39,-0.43 -8.04,-0.71 l -1.33,-0.15 -5.04,46.83 1.33,0.16 z M 6377.3,2109.4 c 0,-114.26 -92.92,-207.19 -207.18,-207.19 -114.26,0 -207.19,92.93 -207.19,207.19 0,114.26 92.93,207.19 207.19,207.19 114.26,0 207.18,-92.93 207.18,-207.19 z m -199.72,282.93 1.33,-0.04 c 3.24,-0.11 6.44,-0.27 9.64,-0.47 l 1.37,-0.11 -3.04,-47.03 -1.33,0.11 c -2.74,0.16 -5.43,0.28 -8.17,0.39 l -1.33,0.04 1.53,47.11 z m 38.67,-3.75 1.33,-0.19 c 3.2,-0.55 6.37,-1.18 9.53,-1.84 l 1.29,-0.27 -9.57,-46.14 -1.29,0.28 c -2.66,0.54 -5.35,1.05 -8.01,1.52 l -1.29,0.24 8.01,46.4 z m 37.81,-9.06 1.29,-0.39 c 3.13,-1.02 6.17,-2.07 9.26,-3.17 l 1.25,-0.46 -15.98,-44.3 -1.25,0.43 c -2.54,0.9 -5.08,1.79 -7.65,2.62 l -1.29,0.39 14.37,44.88 z m 36.25,-14.34 1.21,-0.54 c 2.93,-1.45 5.82,-2.89 8.71,-4.46 l 1.18,-0.58 -22.03,-41.68 -1.22,0.62 c -2.38,1.29 -4.76,2.5 -7.22,3.67 l -1.17,0.59 20.54,42.38 z m 34.92,-19.92 c 2.7,-1.8 5.39,-3.67 8.01,-5.58 l 1.1,-0.79 -27.58,-38.2 -1.1,0.78 c -2.18,1.6 -4.37,3.13 -6.64,4.65 l -1.13,0.74 26.25,39.14 1.09,-0.74 z m 30.75,-23.87 c 2.38,-2.14 4.76,-4.37 7.11,-6.6 l 0.97,-0.94 -32.61,-34.02 -0.98,0.94 c -1.95,1.87 -3.91,3.67 -5.94,5.51 l -1.01,0.86 31.44,35.15 1.02,-0.9 z m -185.86,92.58 c -165.71,0 -300.55,-134.8 -300.55,-300.55 0,-165.7 134.84,-300.54 300.55,-300.54 165.7,0 300.54,134.84 300.54,300.54 0,165.75 -134.84,300.55 -300.54,300.55"
             style="fill:#100f0d;fill-opacity:1;fill-rule:nonzero;stroke:none"
             id="path60" /><path
             d="m 5312.54,1212.06 c 2.15,0 3.91,-0.74 5.27,-2.23 1.37,-1.48 2.03,-3.32 2.03,-5.47 l 0,-53.47 c 0,-2.15 -0.66,-3.99 -2.03,-5.43 -1.36,-1.53 -3.12,-2.27 -5.27,-2.27 l -174.92,0 c -5.16,0 -7.74,2.58 -7.74,7.7 l 0,268.12 c 0,5.12 2.58,7.7 7.74,7.7 l 55.86,0 c 5.11,0 7.69,-2.58 7.69,-7.7 l 0,-199.69 c 0,-2.14 0.74,-3.9 2.23,-5.23 1.48,-1.37 3.32,-2.03 5.47,-2.03 l 103.67,0"
             style="fill:#100f0d;fill-opacity:1;fill-rule:nonzero;stroke:none"
             id="path62" /><path
             d="m 5635.51,1424.48 c 1.48,-1.52 2.22,-3.32 2.22,-5.47 l 0,-222.34 -0.39,0 c 0,-2.15 -0.27,-4.49 -0.82,-6.92 -0.54,-2.42 -1.21,-4.41 -2.03,-6.05 l -37.22,-37.27 c -1.92,-1.05 -4.26,-1.87 -7.11,-2.42 -2.86,-0.55 -5.32,-0.82 -7.5,-0.82 l -128.36,0 c -2.19,0 -4.61,0.27 -7.31,0.82 -2.69,0.55 -5,1.37 -6.87,2.42 l -37.27,37.27 c -1.05,1.87 -1.87,4.18 -2.42,6.87 -0.55,2.7 -0.82,5.12 -0.82,7.31 l 0,221.13 c 0,2.15 0.74,3.95 2.23,5.47 1.48,1.44 3.32,2.23 5.46,2.23 l 55.9,0 c 2.15,0 3.99,-0.79 5.47,-2.23 1.49,-1.52 2.23,-3.32 2.23,-5.47 l 0,-199.69 c 0,-2.14 0.74,-3.98 2.22,-5.43 1.49,-1.48 3.33,-2.22 5.47,-2.22 l 80.2,0 c 2.15,0 3.91,0.74 5.23,2.22 1.37,1.45 2.03,3.29 2.03,5.43 l 0,199.69 c 0,2.15 0.75,3.95 2.23,5.47 1.49,1.44 3.32,2.23 5.51,2.23 l 56.29,0 c 2.15,0 3.94,-0.79 5.43,-2.23"
             style="fill:#100f0d;fill-opacity:1;fill-rule:nonzero;stroke:none"
             id="path64" /><path
             d="m 5924.88,1212.06 c 2.15,0 3.91,-0.74 5.28,-2.23 1.32,-1.48 2.03,-3.32 2.03,-5.47 l 0,-53.47 c 0,-2.15 -0.71,-3.99 -2.03,-5.43 -1.37,-1.53 -3.13,-2.27 -5.28,-2.27 l -174.96,0 c -5.12,0 -7.65,2.58 -7.65,7.7 l 0,268.12 c 0,5.12 2.53,7.7 7.65,7.7 l 55.9,0 c 5.12,0 7.7,-2.58 7.7,-7.7 l 0,-199.69 c 0,-2.14 0.74,-3.9 2.22,-5.23 1.49,-1.37 3.28,-2.03 5.47,-2.03 l 103.67,0"
             style="fill:#100f0d;fill-opacity:1;fill-rule:nonzero;stroke:none"
             id="path66" /><path
             d="m 6228.24,1367.96 c 0,-2.15 -0.54,-4.46 -1.64,-6.88 -1.09,-2.42 -2.3,-4.45 -3.63,-6.09 l -131.64,-148.21 129.22,0 c 2.15,0 3.94,-0.74 5.43,-2.22 1.52,-1.49 2.26,-3.32 2.26,-5.47 l 0,-48.2 c 0,-2.15 -0.74,-3.99 -2.26,-5.43 -1.49,-1.53 -3.28,-2.27 -5.43,-2.27 l -201.29,0 c -5.12,0 -7.7,2.58 -7.7,7.7 l 0,50.62 c 0,2.15 0.47,4.53 1.41,7.07 0.94,2.58 2.11,4.69 3.44,6.33 l 134.45,148.2 -129.18,0 c -2.19,0 -3.98,0.74 -5.47,2.23 -1.48,1.44 -2.23,3.32 -2.23,5.47 l 0,48.2 c 0,2.15 0.75,3.95 2.23,5.47 1.49,1.44 3.28,2.23 5.47,2.23 l 198.87,0 c 2.15,0 3.94,-0.79 5.43,-2.23 1.52,-1.52 2.26,-3.32 2.26,-5.47 l 0,-51.05"
             style="fill:#100f0d;fill-opacity:1;fill-rule:nonzero;stroke:none"
             id="path68" /><path
             d="m 6397.5,1205.14 108.95,0 0,55.12 -108.95,0 0,-55.12 z m 0,109.38 108.95,0 0,50.62 -108.95,0 0,-50.62 z m 170.51,71.68 c 0.82,-1.88 1.52,-4.26 2.22,-7.07 0.67,-2.85 1.02,-5.35 1.02,-7.5 l 0,-44.96 c 0,-2.19 -0.47,-4.53 -1.45,-7.11 -0.93,-2.54 -2.07,-4.65 -3.43,-6.25 L 6548.98,1291 c -1.36,-1.6 -1.99,-3.63 -1.83,-6.05 0.12,-2.42 0.86,-4.34 2.23,-5.67 l 16.6,-20.27 c 1.36,-1.6 2.54,-3.67 3.63,-6.29 1.09,-2.54 1.64,-4.88 1.64,-7.07 l 0,-47.77 c 0,-2.19 -0.35,-4.61 -1.02,-7.31 -0.7,-2.69 -1.4,-5 -2.22,-6.87 l -37.27,-37.27 c -1.87,-1.05 -4.26,-1.87 -7.11,-2.42 -2.85,-0.55 -5.31,-0.82 -7.46,-0.82 l -175.39,0 c -5.12,0 -7.69,2.58 -7.69,7.7 l 0,268.12 c 0,2.15 0.74,3.95 2.22,5.47 1.53,1.44 3.32,2.23 5.47,2.23 l 175.39,0 c 2.15,0 4.61,-0.36 7.46,-1.02 2.85,-0.7 5.24,-1.44 7.11,-2.23 l 37.27,-37.26"
             style="fill:#100f0d;fill-opacity:1;fill-rule:nonzero;stroke:none"
             id="path70" /><path
             d="m 6840.16,1357.84 -95.2,0 0,-146.17 95.2,0 0,146.17 z m 68.43,28.36 c 0.82,-1.88 1.57,-4.18 2.23,-6.88 0.66,-2.69 1.02,-5.15 1.02,-7.3 l 0,-174.14 c 0,-2.19 -0.36,-4.61 -1.02,-7.31 -0.66,-2.69 -1.41,-5 -2.23,-6.87 l -37.26,-37.27 c -1.88,-1.05 -4.26,-1.87 -7.07,-2.42 -2.85,-0.55 -5.35,-0.82 -7.5,-0.82 l -128.4,0 c -2.15,0 -4.57,0.27 -7.27,0.82 -2.69,0.55 -5,1.37 -6.87,2.42 l -37.27,37.27 c -1.09,1.87 -1.91,4.18 -2.42,6.87 -0.55,2.7 -0.82,5.12 -0.82,7.31 l 0,174.14 c 0,2.15 0.27,4.61 0.82,7.3 0.51,2.7 1.33,5 2.42,6.88 l 37.27,37.26 c 1.87,0.79 4.18,1.53 6.87,2.23 2.7,0.66 5.12,1.02 7.27,1.02 l 128.4,0 c 2.15,0 4.65,-0.36 7.5,-1.02 2.81,-0.7 5.19,-1.44 7.07,-2.23 l 37.26,-37.26"
             style="fill:#100f0d;fill-opacity:1;fill-rule:nonzero;stroke:none"
             id="path72" /><path
             d="m 7210.31,1365.53 c 0,-2.14 -0.74,-3.98 -2.22,-5.46 -1.53,-1.49 -3.32,-2.23 -5.47,-2.23 l -57.5,0 c -2.19,0 -3.99,-0.66 -5.51,-2.03 -1.45,-1.33 -2.23,-3.13 -2.23,-5.28 l 0,-199.64 c 0,-2.15 -0.66,-3.99 -1.99,-5.43 -1.37,-1.53 -3.12,-2.27 -5.27,-2.27 l -56.29,0 c -2.19,0 -3.99,0.74 -5.47,2.27 -1.48,1.44 -2.23,3.28 -2.23,5.43 l 0,199.64 c 0,2.15 -0.66,3.95 -2.03,5.28 -1.37,1.37 -3.12,2.03 -5.23,2.03 l -57.54,0 c -2.19,0 -3.99,0.74 -5.43,2.23 -1.52,1.48 -2.27,3.32 -2.27,5.46 l 0,53.48 c 0,5.12 2.58,7.7 7.7,7.7 l 201.29,0 c 2.15,0 3.94,-0.79 5.47,-2.23 1.48,-1.52 2.22,-3.32 2.22,-5.47 l 0,-53.48"
             style="fill:#100f0d;fill-opacity:1;fill-rule:nonzero;stroke:none"
             id="path74" /><path
             d="m 7234.69,1193 c 0,-0.51 -0.2,-0.9 -0.51,-1.25 -0.35,-0.32 -0.74,-0.47 -1.21,-0.47 l -12.89,0 c -0.47,0 -0.9,-0.2 -1.25,-0.47 -0.31,-0.31 -0.47,-0.71 -0.47,-1.17 l 0,-44.73 c 0,-0.47 -0.16,-0.9 -0.47,-1.21 -0.31,-0.35 -0.7,-0.51 -1.17,-0.51 l -12.62,0 c -0.47,0 -0.9,0.16 -1.21,0.51 -0.35,0.31 -0.51,0.74 -0.51,1.21 l 0,44.73 c 0,0.46 -0.15,0.86 -0.47,1.17 -0.27,0.27 -0.7,0.47 -1.17,0.47 l -12.89,0 c -0.47,0 -0.86,0.15 -1.21,0.47 -0.31,0.35 -0.51,0.74 -0.51,1.25 l 0,11.95 c 0,1.13 0.59,1.72 1.72,1.72 l 45.12,0 c 0.47,0 0.86,-0.16 1.21,-0.47 0.31,-0.35 0.51,-0.74 0.51,-1.25 l 0,-11.95"
             style="fill:#100f0d;fill-opacity:1;fill-rule:nonzero;stroke:none"
             id="path76" /><path
             d="m 7312.34,1196.08 c 0.16,-0.62 0.24,-1.17 0.24,-1.64 l 0,-49.53 c 0,-0.47 -0.16,-0.9 -0.51,-1.21 -0.31,-0.35 -0.74,-0.51 -1.21,-0.51 l -12.62,0 c -0.47,0 -0.86,0.16 -1.17,0.51 -0.31,0.31 -0.47,0.74 -0.47,1.21 l 0,46.37 -10.15,0 0,-46.37 c 0,-0.47 -0.16,-0.9 -0.43,-1.21 -0.32,-0.35 -0.71,-0.51 -1.18,-0.51 l -11.44,0 c -0.51,0 -0.9,0.16 -1.21,0.51 -0.35,0.31 -0.51,0.74 -0.51,1.21 l 0,46.37 -10.16,0 0,-46.37 c 0,-1.13 -0.58,-1.72 -1.72,-1.72 l -12.53,0 c -1.14,0 -1.72,0.59 -1.72,1.72 l 0,60.04 c 0,0.51 0.15,0.9 0.5,1.25 0.36,0.31 0.75,0.47 1.22,0.47 l 52.96,0 c 0.51,0 1.06,-0.08 1.68,-0.24 0.67,-0.11 1.18,-0.31 1.61,-0.47 l 8.36,-8.36 c 0.15,-0.42 0.31,-0.93 0.46,-1.52"
             style="fill:#100f0d;fill-opacity:1;fill-rule:nonzero;stroke:none"
             id="path78" /><path
             d="m 226.68,1387.18 -11.45,34.6 -54.449,0 -11.761,-34.6 -35.622,0 48.051,146.56 52.77,0 48.082,-146.56 -35.621,0 m -38.668,115.62 -16.801,-49.41 33.277,0 -16.476,49.41"
             style="fill:#231f20;fill-opacity:1;fill-rule:nonzero;stroke:none"
             id="path80" /><path
             d="m 319.84,1418.42 64.539,0 0,-31.24 -99.539,0 0,146.91 35,0 0,-115.67"
             style="fill:#231f20;fill-opacity:1;fill-rule:nonzero;stroke:none"
             id="path82" /><path
             d="m 448.121,1502.45 0,-26.88 42.039,0 0,-30.89 -42.039,0 0,-26.57 76.289,0 0,-30.93 -110.23,0 0,146.91 110.23,0 0,-31.64 -76.289,0"
             style="fill:#231f20;fill-opacity:1;fill-rule:nonzero;stroke:none"
             id="path84" /><path
             d="m 658.238,1534.09 c 4.692,0 8.711,-1.52 12.071,-4.57 3.363,-3.01 5.043,-6.68 5.043,-10.9 l 0,-65.23 c 0,-4.5 -1.68,-8.25 -5.043,-11.25 -3.36,-3.05 -7.379,-4.54 -12.071,-4.54 l -65.578,0 0,-50.42 -34.93,0 0,146.91 100.508,0 m -17.5,-31.29 -48.078,0 0,-33.95 48.078,0 0,33.95"
             style="fill:#231f20;fill-opacity:1;fill-rule:nonzero;stroke:none"
             id="path86" /><path
             d="m 821.949,1534.09 0,-146.91 -33.98,0 0,49.41 -47.739,0 0,-49.41 -34.609,0 0,146.91 34.609,0 0,-66.25 47.739,0 0,66.25 33.98,0"
             style="fill:#231f20;fill-opacity:1;fill-rule:nonzero;stroke:none"
             id="path88" /><path
             d="m 188.91,1246.98 -62.738,0 c -3.512,0 -6.524,1.09 -9.024,3.24 -2.5,2.19 -3.75,4.96 -3.75,8.28 l 0,86.57 c 0,3.16 1.25,5.89 3.75,8.16 2.5,2.23 5.512,3.36 9.024,3.36 l 62.738,0 c 3.512,0 6.481,-1.13 9.02,-3.36 2.5,-2.27 3.75,-5 3.75,-8.16 l 0,-86.57 c 0,-3.32 -1.25,-6.09 -3.75,-8.28 -2.539,-2.15 -5.508,-3.24 -9.02,-3.24 m -49.691,23.32 36.64,0 0,62.97 -36.64,0 0,-62.97"
             style="fill:#231f20;fill-opacity:1;fill-rule:nonzero;stroke:none"
             id="path90" /><path
             d="m 298.012,1356.59 c 3.359,0 6.328,-1.13 8.898,-3.36 2.621,-2.27 3.91,-5.08 3.91,-8.44 l 0,-86.29 c 0,-3.32 -1.289,-6.09 -3.91,-8.28 -2.57,-2.15 -5.539,-3.24 -8.898,-3.24 l -74.262,0 0,109.61 74.262,0 M 249.34,1333 l 0,-19.54 35.89,0 0,19.54 -35.89,0 z m 35.89,-62.97 0,19.84 -35.89,0 0,-19.84 35.89,0"
             style="fill:#231f20;fill-opacity:1;fill-rule:nonzero;stroke:none"
             id="path92" /><path
             d="m 413.672,1356.59 0,-97.85 c 0,-3.32 -1.25,-6.14 -3.793,-8.4 -2.5,-2.23 -5.5,-3.36 -9.02,-3.36 l -57.461,0 c -3.519,0 -6.488,1.13 -8.988,3.36 -2.531,2.26 -3.789,5.08 -3.789,8.4 l 0,48.67 25.828,0 0,-37.11 31.129,0 0,86.29 26.094,0"
             style="fill:#231f20;fill-opacity:1;fill-rule:nonzero;stroke:none"
             id="path94" /><path
             d="m 464.34,1333 0,-20.04 31.32,0 0,-23.09 -31.32,0 0,-19.84 56.91,0 0,-23.05 -82.27,0 0,109.61 82.27,0 0,-23.59 -56.91,0"
             style="fill:#231f20;fill-opacity:1;fill-rule:nonzero;stroke:none"
             id="path96" /><path
             d="m 598.52,1319.21 0,13.79 -31.329,0 0,-62.97 31.329,0 0,13.82 25.859,0 0,-25.35 c 0,-3.32 -1.258,-6.09 -3.789,-8.28 -2.5,-2.15 -5.59,-3.24 -9.262,-3.24 l -56.949,0 c -3.68,0 -6.719,1.09 -9.149,3.24 -2.421,2.19 -3.628,4.96 -3.628,8.28 l 0,86.29 c 0,3.36 1.207,6.17 3.628,8.44 2.43,2.23 5.469,3.36 9.149,3.36 l 56.949,0 c 3.672,0 6.762,-1.13 9.262,-3.36 2.531,-2.27 3.789,-5.08 3.789,-8.44 l 0,-25.58 -25.859,0"
             style="fill:#231f20;fill-opacity:1;fill-rule:nonzero;stroke:none"
             id="path98" /><path
             d="m 720.43,1333.5 -25.309,0 0,-86.52 -25.859,0 0,86.52 -25.313,0 0,23.09 76.481,0 0,-23.09"
             style="fill:#231f20;fill-opacity:1;fill-rule:nonzero;stroke:none"
             id="path100" /><path
             d="m 808.98,1246.98 -64.449,0 0,23.32 51.41,0 0,20.59 -38.363,0 c -3.519,0 -6.558,1.09 -9.18,3.36 -2.578,2.26 -3.867,5.07 -3.867,8.39 l 0,42.93 c 0,3.17 1.289,5.9 3.867,8.13 2.622,2.26 5.661,3.4 9.18,3.4 l 64.223,0 0,-23.32 -51.18,0 0,-19.34 38.359,0 c 3.52,0 6.532,-1.13 9.032,-3.36 2.539,-2.26 3.789,-5.08 3.789,-8.44 l 0,-43.9 c 0,-3.32 -1.25,-6.14 -3.789,-8.4 -2.5,-2.23 -5.512,-3.36 -9.032,-3.36"
             style="fill:#231f20;fill-opacity:1;fill-rule:nonzero;stroke:none"
             id="path102" /><path
             d="m 113.871,1163.62 8.16016,0 0,48.4805 -8.16016,0 0,-48.4805 z"
             style="fill:#231f20;fill-opacity:1;fill-rule:nonzero;stroke:none"
             id="path104" /><path
             d="m 184.102,1212.1 8.168,0 0,-48.48 -8.872,0 -27.418,35.35 0,-35.35 -8.171,0 0,48.48 8.171,0 28.122,-36.18 0,36.18"
             style="fill:#231f20;fill-opacity:1;fill-rule:nonzero;stroke:none"
             id="path106" /><path
             d="m 240.16,1171.08 c 2.809,0 5.231,0.47 7.262,1.41 2.027,0.93 4.18,2.46 6.406,4.53 l 5.231,-5.39 c -5.11,-5.71 -11.329,-8.52 -18.668,-8.52 -7.301,0 -13.403,2.35 -18.2,7.03 -4.851,4.73 -7.269,10.67 -7.269,17.89 0,7.19 2.457,13.21 7.379,18.01 4.929,4.81 11.14,7.19 18.64,7.19 7.539,0 13.789,-2.73 18.829,-8.28 l -5.2,-5.7 c -2.3,2.22 -4.492,3.78 -6.558,4.64 -2.032,0.9 -4.461,1.33 -7.231,1.33 -4.883,0 -9.019,-1.6 -12.34,-4.72 -3.32,-3.21 -4.961,-7.23 -4.961,-12.15 0,-4.93 1.641,-9.03 4.918,-12.35 3.321,-3.28 7.223,-4.92 11.762,-4.92"
             style="fill:#231f20;fill-opacity:1;fill-rule:nonzero;stroke:none"
             id="path108" /><path
             d="m 320.859,1170.34 c -4.879,-4.77 -10.937,-7.19 -18.129,-7.19 -7.218,0 -13.281,2.42 -18.16,7.19 -4.922,4.76 -7.34,10.74 -7.34,17.85 0,7.15 2.418,13.13 7.34,17.89 4.879,4.77 10.942,7.15 18.16,7.15 7.192,0 13.25,-2.38 18.129,-7.15 4.922,-4.76 7.379,-10.74 7.379,-17.89 0,-7.11 -2.457,-13.09 -7.379,-17.85 m -5.98,30.31 c -3.32,3.4 -7.34,5.12 -12.149,5.12 -4.839,0 -8.859,-1.72 -12.179,-5.12 -3.281,-3.44 -4.961,-7.58 -4.961,-12.46 0,-4.88 1.68,-8.98 4.961,-12.42 3.32,-3.4 7.34,-5.12 12.179,-5.12 4.809,0 8.829,1.72 12.149,5.12 3.281,3.44 4.961,7.54 4.961,12.42 0,4.88 -1.68,9.02 -4.961,12.46"
             style="fill:#231f20;fill-opacity:1;fill-rule:nonzero;stroke:none"
             id="path110" /><path
             d="m 389.531,1196.35 c 0,-8 -3.48,-13.04 -10.472,-15.11 l 12.703,-17.62 -10.434,0 -11.558,16.33 -10.75,0 0,-16.33 -8.122,0 0,48.48 17.973,0 c 7.379,0 12.688,-1.29 15.859,-3.79 3.2,-2.46 4.801,-6.45 4.801,-11.96 m -10.902,-6.87 c 1.68,1.44 2.5,3.75 2.5,6.91 0,3.17 -0.859,5.32 -2.578,6.49 -1.672,1.17 -4.723,1.8 -9.102,1.8 l -10.429,0 0,-17.35 10.199,0 c 4.609,0 7.769,0.74 9.41,2.15"
             style="fill:#231f20;fill-opacity:1;fill-rule:nonzero;stroke:none"
             id="path112" /><path
             d="m 446.371,1207.84 c 3.32,-2.81 5.039,-7.15 5.039,-13.01 0,-5.86 -1.719,-10.15 -5.16,-12.89 -3.441,-2.73 -8.75,-4.1 -15.859,-4.1 l -8.59,0 0,-14.22 -8.172,0 0,48.48 16.641,0 c 7.351,0 12.699,-1.45 16.101,-4.26 m -5.82,-20 c 1.64,1.76 2.461,4.3 2.461,7.66 0,3.35 -1.024,5.7 -3.133,7.07 -2.07,1.4 -5.309,2.11 -9.758,2.11 l -8.32,0 0,-19.42 9.488,0 c 4.531,0 7.621,0.86 9.262,2.58"
             style="fill:#231f20;fill-opacity:1;fill-rule:nonzero;stroke:none"
             id="path114" /><path
             d="m 513.91,1170.34 c -4.93,-4.77 -10.98,-7.19 -18.172,-7.19 -7.218,0 -13.277,2.42 -18.16,7.19 -4.879,4.76 -7.348,10.74 -7.348,17.85 0,7.15 2.469,13.13 7.348,17.89 4.883,4.77 10.942,7.15 18.16,7.15 7.192,0 13.242,-2.38 18.172,-7.15 4.879,-4.76 7.301,-10.74 7.301,-17.89 0,-7.11 -2.422,-13.09 -7.301,-17.85 m -6.019,30.31 c -3.282,3.4 -7.34,5.12 -12.153,5.12 -4.797,0 -8.859,-1.72 -12.187,-5.12 -3.281,-3.44 -4.922,-7.58 -4.922,-12.46 0,-4.88 1.641,-8.98 4.922,-12.42 3.328,-3.4 7.39,-5.12 12.187,-5.12 4.813,0 8.871,1.72 12.153,5.12 3.281,3.44 4.961,7.54 4.961,12.42 0,4.88 -1.68,9.02 -4.961,12.46"
             style="fill:#231f20;fill-opacity:1;fill-rule:nonzero;stroke:none"
             id="path116" /><path
             d="m 582.539,1196.35 c 0,-8 -3.48,-13.04 -10.469,-15.11 l 12.7,-17.62 -10.391,0 -11.57,16.33 -10.739,0 0,-16.33 -8.16,0 0,48.48 18,0 c 7.391,0 12.66,-1.29 15.86,-3.79 3.171,-2.46 4.769,-6.45 4.769,-11.96 m -10.898,-6.87 c 1.718,1.44 2.5,3.75 2.5,6.91 0,3.17 -0.821,5.32 -2.539,6.49 -1.723,1.17 -4.762,1.8 -9.141,1.8 l -10.391,0 0,-17.35 10.16,0 c 4.649,0 7.77,0.74 9.411,2.15"
             style="fill:#231f20;fill-opacity:1;fill-rule:nonzero;stroke:none"
             id="path118" /><path
             d="m 613.52,1174.68 -4.848,-11.06 -8.75,0 21.328,48.48 8.75,0 21.371,-48.48 -8.75,0 -4.851,11.06 -24.25,0 m 20.929,7.53 -8.828,19.97 -8.781,-19.97 17.609,0"
             style="fill:#231f20;fill-opacity:1;fill-rule:nonzero;stroke:none"
             id="path120" /><path
             d="m 684.879,1204.56 0,-40.94 -8.199,0 0,40.94 -14.692,0 0,7.54 37.582,0 0,-7.54 -14.691,0"
             style="fill:#231f20;fill-opacity:1;fill-rule:nonzero;stroke:none"
             id="path122" /><path
             d="m 754.77,1212.1 0,-7.74 -25.821,0 0,-12.81 23.199,0 0,-7.27 -23.199,0 0,-12.93 26.672,0 0,-7.73 -34.883,0 0,48.48 34.032,0"
             style="fill:#231f20;fill-opacity:1;fill-rule:nonzero;stroke:none"
             id="path124" /><path
             d="m 815.039,1205.73 c 4.691,-4.22 6.992,-10.12 6.992,-17.62 0,-7.54 -2.261,-13.51 -6.761,-17.89 -4.532,-4.37 -11.481,-6.6 -20.782,-6.6 l -16.09,0 0,48.48 16.602,0 c 8.711,0 15.391,-2.15 20.039,-6.37 m -1.25,-17.85 c 0,11.09 -6.328,16.64 -19.059,16.64 l -8.171,0 0,-33.17 9.101,0 c 5.86,0 10.36,1.37 13.481,4.18 3.089,2.78 4.648,6.92 4.648,12.35"
             style="fill:#231f20;fill-opacity:1;fill-rule:nonzero;stroke:none"
             id="path126" /><path
             d="m 466.719,1923.58 108.793,-62.69 0,125.62 -108.793,62.54 0,-125.47"
             style="fill:#231f20;fill-opacity:1;fill-rule:nonzero;stroke:none"
             id="path128" /><path
             d="m 466.801,1923.58 -108.871,-62.69 0,125.62 108.871,62.54 0,-125.47"
             style="fill:#231f20;fill-opacity:1;fill-rule:nonzero;stroke:none"
             id="path130" /><path
             d="m 575.512,1860.89 -108.711,62.77 -108.871,-62.77 108.871,-62.78 108.711,62.78"
             style="fill:#231f20;fill-opacity:1;fill-rule:nonzero;stroke:none"
             id="path132" /><path
             d="m 344.488,2009.68 120.282,69.06 1.949,1.13 1.953,-1.13 120.277,-69.06 83.16,48.08 13.59,7.85 -69.058,39.85 48.129,27.77 -43.559,25.16 -43.59,25.15 -0.121,-0.08 -0.23,0.16 -47.969,-27.7 -62.621,36.14 -62.621,-36.14 -47.969,27.7 -0.192,-0.16 -0.117,0.08 -87.191,-50.31 48.09,-27.73 -69.059,-39.89 40.149,-23.2 56.679,-32.7"
             style="fill:#231f20;fill-opacity:1;fill-rule:nonzero;stroke:none"
             id="path134" /><path
             d="m 453.281,1774.87 -122.152,70.55 0,141.13 -56.719,32.73 -40.148,23.21 0,-80.35 -48.602,28.04 0,-106.87 48.602,-28.09 0,-65.7 65.347,-37.74 -53.129,-30.66 43.559,-25.16 43.59,-25.15 0.082,0.08 0.238,-0.12 53,30.58 66.332,-38.28 0,111.8"
             style="fill:#231f20;fill-opacity:1;fill-rule:nonzero;stroke:none"
             id="path136" /><path
             d="m 602.27,1986.51 0,-141.09 -122.27,-70.59 0,-111.83 65.82,38 52.379,-30.23 0.199,0.12 0.122,-0.08 43.589,25.19 43.551,25.12 -52.461,30.31 65.903,38.09 0,65.78 48.558,28.01 0,106.91 -48.558,-28.01 0,80.2 -13.633,-7.85 -83.168,-48.05"
             style="fill:#231f20;fill-opacity:1;fill-rule:nonzero;stroke:none"
             id="path138" /><path
             d="M 466.879,1923.19 357.77,1861.04 m 109.109,188.6 0,-126.61 108.551,-61.99"
             style="fill:none;stroke:#ffffff;stroke-opacity:1;stroke-width:23.2508;stroke-linecap:butt;stroke-linejoin:miter;stroke-miterlimit:4;stroke-dasharray:none"
             id="path140" /><path
             d="m 0,687.129 935.43,0 0,283.48 -935.43,0 0,-283.48 z"
             style="fill:#100f0d;fill-opacity:1;fill-rule:nonzero;stroke:none"
             id="path142" /></g></g><g
         id="g144"><g
           id="g146"
           clip-path="url(#clipPath148)"><path
             d="m 354.34,405.18 c -14.852,-14.84 -35.238,-23.942 -57.86,-23.942 -22.609,0 -43,9.102 -57.851,23.942 -14.801,14.851 -23.938,35.199 -23.938,57.851 0,22.617 9.137,42.969 23.938,57.821 14.851,14.796 35.242,23.937 57.851,23.937 22.622,0 43.008,-9.141 57.86,-23.937 3.16,-3.172 6.051,-6.641 8.711,-10.321 l 18.16,13.399 c -18.981,26.289 -49.84,43.441 -84.731,43.441 -53.859,0 -98.16,-40.781 -103.75,-93.203 l -39.64,0 0,68.281 49.371,0 17.848,22.34 -88.239,0 0,-203.078 21.02,15.348 0,74.761 39.64,0 c 5.59,-52.34 49.891,-93.16 103.75,-93.16 34.891,0 65.75,17.149 84.731,43.442 l -18.16,13.398 c -2.66,-3.68 -5.551,-7.148 -8.711,-10.32"
             style="fill:#161412;fill-opacity:1;fill-rule:nonzero;stroke:none"
             id="path152" /><path
             d="m 296.48,500.5 c 12.821,-0.039 24.11,-6.492 30.86,-16.289 l 18.172,13.391 c -10.864,15.398 -28.75,25.429 -49.032,25.429 -33.16,0 -60,-26.871 -60,-60 0,-33.16 26.84,-60.031 60,-60.031 20.282,0 38.168,10.031 49.032,25.418 L 327.34,441.82 c -6.75,-9.8 -18.039,-16.25 -30.86,-16.25 -20.66,0.039 -37.421,16.758 -37.46,37.461 0.039,20.668 16.8,37.43 37.46,37.469"
             style="fill:#161412;fill-opacity:1;fill-rule:nonzero;stroke:none"
             id="path154" /></g></g><g
         id="g156"><g
           id="g158"
           clip-path="url(#clipPath160)"><path
             d="m 800.941,352.371 0,32.149 c -3.48,-0.469 -7.031,-0.739 -10.671,-0.739 -35.661,0 -65.5,25.071 -72.809,58.547 l 62.187,0 0,31.953 -62.187,0 c 7.309,33.477 37.148,58.559 72.809,58.559 3.64,0 7.191,-0.238 10.671,-0.738 l 0,32.179 c -3.519,0.321 -7.07,0.508 -10.671,0.508 -58.79,0 -106.481,-47.648 -106.481,-106.48 0,-58.789 47.691,-106.489 106.481,-106.489 3.601,0 7.152,0.2 10.671,0.551"
             style="fill:#231f20;fill-opacity:1;fill-rule:nonzero;stroke:none"
             id="path164" /><path
             d="m 502.77,458.309 c 0,-58.789 47.699,-106.489 106.492,-106.489 3.828,0 7.617,0.2 11.359,0.629 l 0,32.192 c -3.711,-0.59 -7.5,-0.86 -11.359,-0.86 -41.172,0 -74.532,33.36 -74.532,74.528 0,41.171 33.36,74.531 74.532,74.531 3.859,0 7.648,-0.27 11.359,-0.86 l 0,32.231 c -3.742,0.391 -7.531,0.578 -11.359,0.578 -58.793,0 -106.492,-47.648 -106.492,-106.48"
             style="fill:#231f20;fill-opacity:1;fill-rule:nonzero;stroke:none"
             id="path166" /></g></g></g><path
       d="m 1182.7987,385.93465 c 0.1035,-0.39591 0.1552,-0.75041 0.1552,-1.06351 l 0,-32.20785 c 0,-0.31181 -0.1164,-0.57704 -0.3364,-0.7931 -0.2199,-0.21866 -0.4787,-0.32345 -0.7892,-0.32345 l -8.1897,0 c -0.3235,0 -0.5822,0.10479 -0.7763,0.32345 -0.1941,0.21606 -0.2976,0.48129 -0.2976,0.7931 l 0,30.14166 -6.5984,0 0,-30.14166 c 0,-0.31181 -0.1035,-0.57704 -0.2975,-0.7931 -0.1941,-0.21866 -0.4529,-0.32345 -0.7634,-0.32345 l -7.4264,0 c -0.3234,0 -0.5951,0.10479 -0.8021,0.32345 -0.22,0.21606 -0.3364,0.48129 -0.3364,0.7931 l 0,30.14166 -6.5984,0 0,-30.14166 c 0,-0.74523 -0.3752,-1.11655 -1.1256,-1.11655 l -8.138,0 c -0.7504,0 -1.1127,0.37132 -1.1127,1.11655 l 0,39.04817 c 0,0.31569 0.1035,0.57704 0.3105,0.79699 0.22,0.21477 0.4917,0.32344 0.8022,0.32344 l 34.4409,0 c 0.3235,0 0.6857,-0.0466 1.0868,-0.14361 0.427,-0.10221 0.7634,-0.207 1.048,-0.32862 l 5.421,-5.42491 c 0.1165,-0.27428 0.2329,-0.61067 0.3235,-1.0001"
       style="fill:#100f0d;fill-opacity:1;fill-rule:nonzero;stroke:none"
       id="path64-7"
       inkscape:connector-curvature="0" /><path
       d="m 1202.6456,352.66329 c 0,-0.74523 -0.3752,-1.11655 -1.1256,-1.11655 l -8.138,0 c -0.7375,0 -1.1256,0.37132 -1.1256,1.11655 l 0,39.04817 c 0,0.75041 0.3881,1.12043 1.1256,1.12043 l 8.138,0 c 0.7504,0 1.1256,-0.37002 1.1256,-1.12043 l 0,-39.04817"
       style="fill:#100f0d;fill-opacity:1;fill-rule:nonzero;stroke:none"
       id="path66-0"
       inkscape:connector-curvature="0" /><path
       d="m 1246.4407,385.93465 c 0.091,-0.39591 0.1423,-0.75041 0.1423,-1.06351 l 0,-32.20785 c 0,-0.31181 -0.1035,-0.57704 -0.3234,-0.7931 -0.22,-0.21866 -0.4787,-0.32345 -0.8022,-0.32345 l -8.1897,0 c -0.3106,0 -0.5822,0.10479 -0.7893,0.32345 -0.2199,0.21606 -0.3363,0.48129 -0.3363,0.7931 l 0,29.08203 c 0,0.3144 -0.091,0.56798 -0.2847,0.76723 -0.207,0.19407 -0.4528,0.2924 -0.7763,0.2924 l -11.683,0 c -0.3105,0 -0.5693,-0.0983 -0.7892,-0.2924 -0.2199,-0.19925 -0.3235,-0.45283 -0.3235,-0.76723 l 0,-29.08203 c 0,-0.74523 -0.3752,-1.11655 -1.1256,-1.11655 l -8.138,0 c -0.7374,0 -1.1126,0.37132 -1.1126,1.11655 l 0,39.04817 c 0,0.31569 0.1035,0.57704 0.3234,0.79699 0.207,0.21477 0.4787,0.32344 0.7892,0.32344 l 25.5397,0 c 0.3234,0 0.6857,-0.0466 1.0868,-0.14361 0.4269,-0.10221 0.7633,-0.207 1.0479,-0.32862 l 5.4211,-5.42491 c 0.1164,-0.27428 0.2199,-0.61067 0.3234,-1.0001"
       style="fill:#100f0d;fill-opacity:1;fill-rule:nonzero;stroke:none"
       id="path68-2"
       inkscape:connector-curvature="0" /><path
       d="m 1266.2876,352.66329 c 0,-0.74523 -0.3752,-1.11655 -1.1256,-1.11655 l -8.138,0 c -0.7375,0 -1.1256,0.37132 -1.1256,1.11655 l 0,39.04817 c 0,0.75041 0.3881,1.12043 1.1256,1.12043 l 8.138,0 c 0.7504,0 1.1256,-0.37002 1.1256,-1.12043 l 0,-39.04817"
       style="fill:#100f0d;fill-opacity:1;fill-rule:nonzero;stroke:none"
       id="path70-5"
       inkscape:connector-curvature="0" /><path
       d="m 1150.5184,404.50068 c 0.1293,0 0.2329,-0.0479 0.3105,-0.13715 0.078,-0.0906 0.1294,-0.20312 0.1294,-0.3325 l 0,-3.26426 c 0,-0.13326 -0.052,-0.24323 -0.1294,-0.33251 -0.078,-0.0944 -0.1812,-0.13714 -0.3105,-0.13714 l -10.6868,0 c -0.3235,0 -0.4658,0.15526 -0.4658,0.46965 l 0,16.36657 c 0,0.31181 0.1423,0.46965 0.4658,0.46965 l 3.4156,0 c 0.3105,0 0.4658,-0.15784 0.4658,-0.46965 l 0,-12.19148 c 0,-0.12938 0.039,-0.23806 0.1294,-0.31698 0.1035,-0.0854 0.207,-0.1242 0.3363,-0.1242 l 6.3397,0"
       style="fill:#100f0d;fill-opacity:1;fill-rule:nonzero;stroke:none"
       id="path72-7"
       inkscape:connector-curvature="0" /><path
       d="m 1170.2229,417.46455 c 0.091,-0.0893 0.1424,-0.20183 0.1424,-0.33121 l 0,-13.57455 -0.039,0 c 0,-0.12809 0,-0.27299 -0.039,-0.42178 -0.039,-0.1449 -0.078,-0.26911 -0.1294,-0.36744 l -2.277,-2.27708 c -0.1036,-0.0621 -0.2459,-0.11386 -0.427,-0.14491 -0.1682,-0.0349 -0.3235,-0.0505 -0.4658,-0.0505 l -7.8275,0 c -0.1293,0 -0.2846,0.0155 -0.4528,0.0505 -0.1552,0.031 -0.2976,0.0828 -0.414,0.14491 l -2.2771,2.27708 c -0.065,0.11386 -0.1164,0.25359 -0.1423,0.41919 -0.026,0.16302 -0.052,0.31181 -0.052,0.44766 l 0,13.49692 c 0,0.12938 0.052,0.24194 0.1424,0.33121 0.091,0.0906 0.194,0.13844 0.3234,0.13844 l 3.4156,0 c 0.1294,0 0.2329,-0.0479 0.3364,-0.13844 0.091,-0.0893 0.1294,-0.20183 0.1294,-0.33121 l 0,-12.19148 c 0,-0.12938 0.052,-0.24194 0.1423,-0.3325 0.091,-0.0893 0.1941,-0.13197 0.3364,-0.13197 l 4.8906,0 c 0.1294,0 0.2458,0.0427 0.3234,0.13197 0.078,0.0906 0.1165,0.20312 0.1165,0.3325 l 0,12.19148 c 0,0.12938 0.052,0.24194 0.1423,0.33121 0.091,0.0906 0.207,0.13844 0.3364,0.13844 l 3.4285,0 c 0.1424,0 0.2459,-0.0479 0.3364,-0.13844"
       style="fill:#100f0d;fill-opacity:1;fill-rule:nonzero;stroke:none"
       id="path74-8"
       inkscape:connector-curvature="0" /><path
       d="m 1187.8833,404.50068 c 0.1294,0 0.2458,-0.0479 0.3235,-0.13715 0.09,-0.0906 0.1293,-0.20312 0.1293,-0.3325 l 0,-3.26426 c 0,-0.13326 -0.039,-0.24323 -0.1293,-0.33251 -0.078,-0.0944 -0.1941,-0.13714 -0.3235,-0.13714 l -10.6868,0 c -0.3105,0 -0.4657,0.15526 -0.4657,0.46965 l 0,16.36657 c 0,0.31181 0.1552,0.46965 0.4657,0.46965 l 3.4286,0 c 0.3105,0 0.4528,-0.15784 0.4528,-0.46965 l 0,-12.19148 c 0,-0.12938 0.052,-0.23806 0.1423,-0.31698 0.091,-0.0854 0.207,-0.1242 0.3364,-0.1242 l 6.3267,0"
       style="fill:#100f0d;fill-opacity:1;fill-rule:nonzero;stroke:none"
       id="path76-9"
       inkscape:connector-curvature="0" /><path
       d="m 1206.3976,414.01658 c 0,-0.13327 -0.026,-0.27041 -0.091,-0.4179 -0.078,-0.15396 -0.1423,-0.27429 -0.2199,-0.37132 l -8.0475,-9.04755 7.8922,0 c 0.1294,0 0.2458,-0.0466 0.3364,-0.13714 0.091,-0.0932 0.1294,-0.20312 0.1294,-0.33509 l 0,-2.94081 c 0,-0.13326 -0.039,-0.24323 -0.1294,-0.33251 -0.091,-0.0944 -0.207,-0.13714 -0.3364,-0.13714 l -12.2911,0 c -0.3105,0 -0.4657,0.15526 -0.4657,0.46965 l 0,3.0883 c 0,0.13326 0.026,0.27817 0.091,0.43342 0.052,0.15655 0.1294,0.28593 0.207,0.38297 l 8.2157,9.04754 -7.8922,0 c -0.1294,0 -0.2458,0.0466 -0.3364,0.13585 -0.091,0.0906 -0.1423,0.20442 -0.1423,0.3338 l 0,2.94469 c 0,0.12938 0.052,0.24194 0.1423,0.33121 0.091,0.0906 0.207,0.13844 0.3364,0.13844 l 12.1358,0 c 0.1294,0 0.2459,-0.0479 0.3364,-0.13844 0.091,-0.0893 0.1294,-0.20183 0.1294,-0.33121 l 0,-3.11676"
       style="fill:#100f0d;fill-opacity:1;fill-rule:nonzero;stroke:none"
       id="path78-0"
       inkscape:connector-curvature="0" /><path
       d="m 1216.735,404.0776 6.6502,0 0,3.36388 -6.6502,0 0,-3.36388 z m 0,6.67731 6.6502,0 0,3.08959 -6.6502,0 0,-3.08959 z m 10.4022,4.37433 c 0.052,-0.11256 0.091,-0.26264 0.1294,-0.43471 0.052,-0.17208 0.078,-0.32345 0.078,-0.45671 l 0,-2.74157 c 0,-0.13326 -0.026,-0.27687 -0.091,-0.43342 -0.065,-0.15655 -0.1294,-0.28593 -0.207,-0.38296 l -1.0609,-1.35979 c -0.091,-0.10091 -0.1164,-0.22124 -0.1164,-0.37132 0,-0.14749 0.052,-0.26005 0.1293,-0.34674 l 1.0092,-1.23428 c 0.091,-0.097 0.1682,-0.22642 0.2329,-0.38297 0.065,-0.15655 0.1035,-0.30016 0.1035,-0.43342 l 0,-2.91493 c 0,-0.13585 -0.026,-0.28464 -0.078,-0.44766 -0.039,-0.1656 -0.078,-0.30533 -0.1294,-0.41919 l -2.2771,-2.27708 c -0.1035,-0.0621 -0.2587,-0.11386 -0.4269,-0.14491 -0.1682,-0.0349 -0.3235,-0.0505 -0.4658,-0.0505 l -10.6997,0 c -0.3105,0 -0.4658,0.15526 -0.4658,0.46965 l 0,16.36657 c 0,0.12938 0.039,0.24194 0.1423,0.33122 0.091,0.0906 0.1941,0.13843 0.3235,0.13843 l 10.6997,0 c 0.1423,0 0.2976,-0.0246 0.4658,-0.0634 0.1682,-0.0427 0.3234,-0.0867 0.4269,-0.13714 l 2.2771,-2.27321"
       style="fill:#100f0d;fill-opacity:1;fill-rule:nonzero;stroke:none"
       id="path80-8"
       inkscape:connector-curvature="0" /><path
       d="m 1243.7496,413.39814 -5.8092,0 0,-8.92075 5.8092,0 0,8.92075 z m 4.179,1.7311 c 0.052,-0.11256 0.091,-0.25746 0.1293,-0.41789 0.039,-0.1682 0.078,-0.31569 0.078,-0.44895 l 0,-10.62598 c 0,-0.13585 -0.039,-0.28464 -0.078,-0.44766 -0.039,-0.1656 -0.078,-0.30533 -0.1293,-0.41919 l -2.2771,-2.27708 c -0.1035,-0.0621 -0.2588,-0.11386 -0.427,-0.14491 -0.1682,-0.0349 -0.3234,-0.0505 -0.4657,-0.0505 l -7.8275,0 c -0.1294,0 -0.2847,0.0155 -0.4529,0.0505 -0.1552,0.031 -0.2975,0.0828 -0.414,0.14491 l -2.2771,2.27708 c -0.065,0.11386 -0.1164,0.25359 -0.1423,0.41919 -0.026,0.16302 -0.052,0.31181 -0.052,0.44766 l 0,10.62598 c 0,0.13326 0.026,0.28075 0.052,0.44895 0.026,0.16043 0.078,0.30533 0.1423,0.41789 l 2.2771,2.27321 c 0.1165,0.0505 0.2588,0.0944 0.414,0.13714 0.1682,0.0388 0.3235,0.0634 0.4529,0.0634 l 7.8275,0 c 0.1423,0 0.2975,-0.0246 0.4657,-0.0634 0.1682,-0.0427 0.3235,-0.0867 0.427,-0.13714 l 2.2771,-2.27321"
       style="fill:#100f0d;fill-opacity:1;fill-rule:nonzero;stroke:none"
       id="path82-3"
       inkscape:connector-curvature="0" /><path
       d="m 1266.3393,413.8665 c 0,-0.13197 -0.039,-0.24195 -0.1293,-0.33122 -0.091,-0.0944 -0.1941,-0.13714 -0.3364,-0.13714 l -3.5062,0 c -0.1294,0 -0.2458,-0.0427 -0.3364,-0.1255 -0.091,-0.0815 -0.1423,-0.18631 -0.1423,-0.31957 l 0,-12.1863 c 0,-0.13326 -0.039,-0.24323 -0.1165,-0.33251 -0.078,-0.0944 -0.194,-0.13714 -0.3234,-0.13714 l -3.4415,0 c -0.1294,0 -0.2329,0.0427 -0.3235,0.13714 -0.091,0.0893 -0.1423,0.19925 -0.1423,0.33251 l 0,12.1863 c 0,0.13326 -0.039,0.23806 -0.1164,0.31957 -0.078,0.0828 -0.1941,0.1255 -0.3235,0.1255 l -3.5062,0 c -0.1294,0 -0.2587,0.0427 -0.3364,0.13714 -0.091,0.0893 -0.1423,0.19925 -0.1423,0.33122 l 0,3.26684 c 0,0.31181 0.1682,0.46965 0.4787,0.46965 l 12.2782,0 c 0.1423,0 0.2458,-0.0479 0.3364,-0.13844 0.091,-0.0893 0.1293,-0.20183 0.1293,-0.33121 l 0,-3.26684"
       style="fill:#100f0d;fill-opacity:1;fill-rule:nonzero;stroke:none"
       id="path84-7"
       inkscape:connector-curvature="0" /><path
       d="m 1267.8272,403.33626 c 0,-0.031 0,-0.0556 -0.026,-0.0738 -0.013,-0.0207 -0.039,-0.031 -0.065,-0.031 l -0.7892,0 c -0.039,0 -0.065,-0.009 -0.091,-0.0285 -0.013,-0.0194 -0.026,-0.0427 -0.026,-0.0737 l 0,-2.72733 c 0,-0.031 0,-0.0543 -0.013,-0.0738 -0.026,-0.0233 -0.052,-0.031 -0.091,-0.031 l -0.7504,0 c -0.039,0 -0.065,0.008 -0.091,0.031 -0.013,0.0194 -0.026,0.0427 -0.026,0.0738 l 0,2.72733 c 0,0.031 -0.013,0.0543 -0.026,0.0737 -0.026,0.0194 -0.039,0.0285 -0.078,0.0285 l -0.7892,0 c -0.026,0 -0.039,0.0103 -0.065,0.031 -0.026,0.0181 -0.026,0.0427 -0.026,0.0738 l 0,0.7297 c 0,0.0712 0.026,0.10609 0.091,0.10609 l 2.7687,0 c 0.026,0 0.052,-0.0116 0.065,-0.031 0.026,-0.0194 0.026,-0.0466 0.026,-0.075 l 0,-0.7297"
       style="fill:#100f0d;fill-opacity:1;fill-rule:nonzero;stroke:none"
       id="path86-7"
       inkscape:connector-curvature="0" /><path
       d="m 1272.5755,403.52386 c 0.013,-0.0401 0.013,-0.0712 0.013,-0.097 l 0,-3.0249 c 0,-0.031 0,-0.0543 -0.026,-0.0737 -0.026,-0.0233 -0.052,-0.031 -0.078,-0.031 l -0.7763,0 c -0.026,0 -0.052,0.008 -0.065,0.031 -0.026,0.0194 -0.026,0.0427 -0.026,0.0737 l 0,2.82954 -0.621,0 0,-2.82954 c 0,-0.031 -0.013,-0.0543 -0.039,-0.0737 0,-0.0233 -0.039,-0.031 -0.065,-0.031 l -0.6987,0 c -0.026,0 -0.052,0.008 -0.078,0.031 -0.013,0.0194 -0.026,0.0427 -0.026,0.0737 l 0,2.82954 -0.621,0 0,-2.82954 c 0,-0.0699 -0.039,-0.1048 -0.1035,-0.1048 l -0.7634,0 c -0.065,0 -0.1035,0.0349 -0.1035,0.1048 l 0,3.66404 c 0,0.0285 0.013,0.0556 0.039,0.075 0.013,0.0194 0.039,0.031 0.065,0.031 l 3.2345,0 c 0.026,0 0.065,-0.004 0.1035,-0.0155 0.026,-0.009 0.078,-0.0194 0.091,-0.0311 l 0.5046,-0.50846 c 0.013,-0.0272 0.026,-0.0543 0.039,-0.0932"
       style="fill:#100f0d;fill-opacity:1;fill-rule:nonzero;stroke:none"
       id="path88-3"
       inkscape:connector-curvature="0" /><flowRoot
       xml:space="preserve"
       id="flowRoot3683"
       style="font-size:16px;font-style:normal;font-weight:normal;line-height:125%;letter-spacing:0px;word-spacing:0px;fill:#000000;fill-opacity:1;stroke:none;font-family:Sans"
       transform="matrix(0.63564617,0,0,-0.63564617,-14.414071,824.09467)"><flowRegion
         id="flowRegion3685"><rect
           id="rect3687"
           width="68.934975"
           height="35.915703"
           x="1807.3708"
           y="801.68665" /></flowRegion><flowPara
         id="flowPara3689"
         style="font-size:16px;font-style:normal;font-variant:normal;font-weight:bold;font-stretch:normal;text-align:start;line-height:125%;writing-mode:lr-tb;text-anchor:start;font-family:Outage;-inkscape-font-specification:Outage Bold">ON</flowPara></flowRoot><flowRoot
       transform="matrix(0.63564617,0,0,-0.63564617,-17.261171,700.97609)"
       style="font-size:16px;font-style:normal;font-weight:normal;line-height:125%;letter-spacing:0px;word-spacing:0px;fill:#000000;fill-opacity:1;stroke:none;font-family:Sans"
       id="flowRoot3704"
       xml:space="preserve"><flowRegion
         id="flowRegion3706"><rect
           y="801.68665"
           x="1807.3708"
           height="35.915703"
           width="68.934975"
           id="rect3708" /></flowRegion><flowPara
         style="font-size:16px;font-style:normal;font-variant:normal;font-weight:bold;font-stretch:normal;text-align:start;line-height:125%;writing-mode:lr-tb;text-anchor:start;font-family:Outage;-inkscape-font-specification:Outage Bold"
         id="flowPara3710">OFF</flowPara></flowRoot><g
       id="g692"
       transform="matrix(1.0000026,0,0,1.0000026,-327.52508,-190.19014)"><text
         transform="scale(1,-1)"
         id="text694"
         x="374.81729"
         y="-207.04272"
         style="font-size:11.27621365px"><tspan
           style="font-size:6.76571035px;font-variant:normal;font-weight:bold;text-align:center;writing-mode:lr-tb;text-anchor:middle;fill:#000000;fill-opacity:1;fill-rule:nonzero;stroke:none;font-family:DejaVu Sans;-inkscape-font-specification:DejaVuSans-Bold"
           x="374.81729"
           y="-207.04272"
           sodipodi:role="line"
           id="tspan698">INPUT: 100-240V ~</tspan><tspan
           style="font-size:6.76571035px;font-variant:normal;font-weight:bold;text-align:center;writing-mode:lr-tb;text-anchor:middle;fill:#000000;fill-opacity:1;fill-rule:nonzero;stroke:none;font-family:DejaVu Sans;-inkscape-font-specification:DejaVuSans-Bold"
           x="374.81729"
           y="-198.58559"
           sodipodi:role="line"
           id="tspan3359">50-60Hz, 3.2A</tspan></text>
</g></g></svg>